<?xml version="1.0" encoding="UTF-8" standalone="no"?>
<svg
   xmlns:dc="http://purl.org/dc/elements/1.1/"
   xmlns:cc="http://creativecommons.org/ns#"
   xmlns:rdf="http://www.w3.org/1999/02/22-rdf-syntax-ns#"
   xmlns:svg="http://www.w3.org/2000/svg"
   xmlns="http://www.w3.org/2000/svg"
   xmlns:xlink="http://www.w3.org/1999/xlink"
   xmlns:sodipodi="http://sodipodi.sourceforge.net/DTD/sodipodi-0.dtd"
   xmlns:inkscape="http://www.inkscape.org/namespaces/inkscape"
   id="svg1939"
   version="1.1"
   viewBox="0 0 132.29166 132.29167"
   height="500"
   width="500"
   sodipodi:docname="banner.svg"
   inkscape:version="0.92.4 (5da689c313, 2019-01-14)"
   inkscape:export-filename="/srv/nurofsun.github.io/assets/images/banner.png"
   inkscape:export-xdpi="192"
   inkscape:export-ydpi="192">
  <sodipodi:namedview
     pagecolor="#ffffff"
     bordercolor="#666666"
     borderopacity="1"
     objecttolerance="10"
     gridtolerance="10"
     guidetolerance="10"
     inkscape:pageopacity="0"
     inkscape:pageshadow="2"
     inkscape:window-width="1366"
     inkscape:window-height="745"
     id="namedview106"
     showgrid="false"
     inkscape:zoom="0.944"
     inkscape:cx="1.2606363"
     inkscape:cy="305.77965"
     inkscape:window-x="0"
     inkscape:window-y="0"
     inkscape:window-maximized="0"
     inkscape:current-layer="svg1939" />
  <defs
     id="defs1933">
    <linearGradient
       gradientTransform="matrix(1.1727341,0,0,1.1727341,-41.664569,70.536381)"
       gradientUnits="userSpaceOnUse"
       y2="132.04608"
       x2="81.733856"
       y1="135.19766"
       x1="80.592903"
       id="linearGradient894"
       xlink:href="#linearGradient890" />
    <linearGradient
       id="linearGradient890">
      <stop
         id="stop886"
         offset="0"
         style="stop-color:#000000;stop-opacity:1;" />
      <stop
         id="stop888"
         offset="1"
         style="stop-color:#000000;stop-opacity:0;" />
    </linearGradient>
  </defs>
  <metadata
     id="metadata1936">
    <rdf:RDF>
      <cc:Work
         rdf:about="">
        <dc:format>image/svg+xml</dc:format>
        <dc:type
           rdf:resource="http://purl.org/dc/dcmitype/StillImage" />
        <dc:title />
      </cc:Work>
    </rdf:RDF>
  </metadata>
  <g
     id="g2908"
     transform="matrix(1.2128897,0,0,1.2128897,-16.105456,-226.69048)">
    <path
       inkscape:connector-curvature="0"
       id="path1515"
       d="m 71.921488,192.4253 c 0,0 8.135704,-0.59822 10.76785,1.91429 2.632153,2.51249 4.187512,4.66607 4.187512,4.66607 l -4.905363,-1.91429 c 0,0 8.494657,6.58036 8.733928,10.05 0.239295,3.46965 0.239295,13.51965 0.239295,13.51965 l -0.957141,-3.70893 c 0,0 -1.316079,11.00714 -1.555366,10.28928 -0.239281,-0.71786 -1.674993,-6.46071 -1.555353,-5.02499 0.119647,1.43571 -0.717863,7.17856 -0.837496,6.22143 -0.119648,-0.95715 -1.196425,-4.90536 -1.196425,-4.90536 l -2.512514,17.70714 -1.435705,-11.00714 -2.033935,3.70893 2.153561,-11.96429 -0.598202,1.07678 1.076777,-10.16964 -2.632136,6.34107 1.555359,-7.41786 -8.016078,2.87143 3.708935,-3.58928 c 0,0 -9.33215,6.46071 -9.212509,5.98214 0.119647,-0.47857 2.392855,-5.74286 2.392855,-5.74286 l -5.623215,9.81072 -0.358927,-3.11072 -1.435712,1.43572 1.674999,-27.63751 z"
       style="display:inline;fill:#1a1a1a;fill-opacity:1;stroke:none;stroke-width:0.34446627px;stroke-linecap:butt;stroke-linejoin:miter;stroke-opacity:1;enable-background:new" />
    <path
       inkscape:connector-curvature="0"
       id="path1233"
       d="m 86.572438,259.02899 c 0,0 4.741927,2.31708 5.765743,2.74817 1.023815,0.43108 8.998889,3.61033 10.453789,3.98753 1.45491,0.37719 2.6404,0.32331 5.44243,1.93988 2.80206,1.61656 6.73569,6.03517 6.73569,6.03517 l 0.76809,0.58513 0.0762,1.3717 c 0,0 3.16255,4.11511 4.22943,10.82121 1.06688,6.70609 2.28616,10.6688 2.28616,10.6688 l -49.838518,-0.45725 13.564612,-33.53047 z"
       style="display:inline;opacity:1;fill:#ececec;stroke:none;stroke-width:0.3102859px;stroke-linecap:butt;stroke-linejoin:miter;stroke-opacity:1;enable-background:new" />
    <path
       inkscape:connector-curvature="0"
       id="path1138"
       d="m 75.849214,243.88716 c 0,0 5.604086,9.05278 6.035175,11.2082 0.43108,2.15542 2.370952,16.81227 0.862157,20.26095 -1.508798,3.44868 -10.561555,21.55421 -10.561555,21.55421 -0.04232,-0.27536 -8.296885,0.71016 -8.837228,0.43109 -2.24154,-1.15773 -5.388555,-37.07324 -3.664222,-42.03071 1.72434,-4.95747 15.519048,-12.2859 15.519048,-12.2859 z"
       style="display:inline;opacity:1;fill:#ececec;fill-opacity:1;stroke:none;stroke-width:0.3102859px;stroke-linecap:butt;stroke-linejoin:miter;stroke-opacity:1;enable-background:new" />
    <path
       inkscape:connector-curvature="0"
       id="path1136"
       d="m 92.553718,277.72728 c 0,0 -2.155404,2.90982 -4.20307,2.90982 -2.047639,0 -1.832102,1.61657 -3.12536,1.93987 -1.293253,0.32332 -3.556444,1.07772 -4.310845,0.7544 -0.754395,-0.32332 -2.155434,0.32332 -1.185491,-0.7544 0.969961,-1.07771 3.448682,-2.90982 5.496336,-3.55645 2.04766,-0.64661 7.32843,-1.29324 7.32843,-1.29324 z"
       style="display:inline;opacity:1;fill:#9c9c9c;fill-opacity:1;stroke:none;stroke-width:0.3102859px;stroke-linecap:butt;stroke-linejoin:miter;stroke-opacity:1;enable-background:new" />
    <path
       inkscape:connector-curvature="0"
       id="path1130"
       d="m 72.186664,260.30303 c 0,0 -2.438582,4.26752 -3.353053,5.18198 -0.914466,0.91447 0.304821,2.74342 -0.152411,3.96271 -0.457232,1.21929 -1.828937,2.74339 -4.419929,0.45722 -2.590991,-2.28616 -4.115106,-3.04821 -3.505457,-5.18198 0.609645,-2.13375 0,-4.41993 2.590985,-4.57234 2.590993,-0.1524 8.839865,0.15241 8.839865,0.15241 z"
       style="display:inline;opacity:1;fill:#cccccc;fill-opacity:1;stroke:none;stroke-width:0.3102859px;stroke-linecap:butt;stroke-linejoin:miter;stroke-opacity:1;enable-background:new" />
    <path
       inkscape:connector-curvature="0"
       id="path1128"
       d="m 78.892762,249.78664 c 0,0.76208 -2.438589,4.72477 -4.419942,5.94405 -1.981335,1.21929 -2.743388,4.57234 -4.267511,5.33441 -1.524109,0.76205 -3.657867,1.52411 -3.962689,2.43856 -0.304828,0.91448 0.914472,4.26753 0.914472,4.26753 l -0.152418,2.43858 c 0,0 -1.219288,-1.3717 -2.895814,-3.35304 -1.676519,-1.98135 -2.43858,-1.82894 -2.286169,-4.57236 0.152411,-2.7434 -0.304822,-3.81027 2.133758,-6.40126 2.438582,-2.59099 14.936313,-6.09647 14.936313,-6.09647 z"
       style="display:inline;opacity:1;fill:#b3b3b3;fill-opacity:1;stroke:none;stroke-width:0.3102859px;stroke-linecap:butt;stroke-linejoin:miter;stroke-opacity:1;enable-background:new" />
    <path
       inkscape:connector-curvature="0"
       id="path1126"
       d="m 78.28311,250.54872 c -1.066881,-0.15242 -7.772973,10.51638 -12.04049,11.43084 -4.267518,0.91448 -5.791627,3.20063 -6.248866,1.06688 -0.457232,-2.13376 -3.353046,-4.87717 0.609642,-5.79162 3.962698,-0.91448 17.679714,-6.7061 17.679714,-6.7061 z"
       style="display:inline;opacity:1;fill:#666666;fill-opacity:1;stroke:none;stroke-width:0.3102859px;stroke-linecap:butt;stroke-linejoin:miter;stroke-opacity:1;enable-background:new" />
    <path
       inkscape:connector-curvature="0"
       id="path1134"
       d="m 79.297879,250.24565 c 0,0 -0.431088,5.06525 0.754395,6.46627 1.185474,1.40101 1.832115,1.07771 1.61657,3.87975 -0.215544,2.80206 -1.18549,7.43621 -1.293259,9.05277 -0.10781,1.61656 -0.323311,4.31085 -0.323311,4.31085 0,0 3.448673,0.21555 3.664217,-4.52639 0.215544,-4.74192 0.431095,-13.25584 -0.323306,-14.65686 -0.754397,-1.40103 -1.401035,-2.26319 -2.370973,-2.69427 -0.969938,-0.43109 -1.724333,-1.83212 -1.724333,-1.83212 z"
       style="display:inline;opacity:1;fill:#808080;fill-opacity:1;stroke:none;stroke-width:0.3102859px;stroke-linecap:butt;stroke-linejoin:miter;stroke-opacity:1;enable-background:new" />
    <path
       inkscape:connector-curvature="0"
       id="path1124"
       d="m 60.755814,194.00413 c 0,0 3.048225,-2.43859 6.40127,-0.91447 3.353053,1.52412 9.754323,2.13375 11.888074,4.26751 2.133773,2.13375 8.839875,8.53504 9.449526,12.80255 0.609636,4.26753 -0.152418,11.43085 -0.381048,12.0405 -0.228603,0.60965 -1.066869,4.03889 -1.066869,4.03889 0,0 0.838266,0.83827 0.914472,1.67653 0.07628,0.83826 0.381027,2.7434 -0.228623,4.0389 -0.609637,1.2955 -0.838267,1.90513 -1.066883,2.97201 -0.228603,1.06689 -0.83826,2.20997 -0.990657,2.8196 -0.152432,0.60967 -0.762061,1.21931 -1.676535,1.37172 -0.914486,0.1524 -1.371708,0.30482 -1.447905,1.14307 -0.07616,0.83827 -0.152425,4.72476 -0.609652,5.48682 -0.457231,0.76205 -1.905141,3.12444 -2.743408,3.73408 -0.838267,0.60964 -6.02025,5.94403 -7.239536,6.55368 -1.219286,0.60965 -5.563009,2.6672 -6.553686,2.97201 -0.990671,0.30483 -2.743403,0.38104 -2.743403,0.38104 z"
       style="display:inline;opacity:1;fill:#ececec;fill-opacity:1;stroke:none;stroke-width:0.3102859px;stroke-linecap:butt;stroke-linejoin:miter;stroke-opacity:1;enable-background:new" />
    <path
       inkscape:connector-curvature="0"
       id="path1154"
       d="m 62.673329,240.59695 3.135013,-1.19733 -0.522504,-1.0885 4.49351,0.27214 -2.717006,-5.00707 -1.463003,0.81637 -1.463005,-5.44244 -1.515247,-0.70753 0.835997,-1.68715 -0.417998,-1.63275 -1.254009,-0.32654 0.522503,16.21851 z"
       style="display:inline;opacity:1;fill:#999999;fill-opacity:1;stroke:none;stroke-width:0.30706546px;stroke-linecap:butt;stroke-linejoin:miter;stroke-opacity:1;enable-background:new" />
    <path
       inkscape:connector-curvature="0"
       id="path1231"
       d="m 72.643888,296.04348 c 0,0 1.143089,-4.11511 1.219295,-4.95336 0.0763,-0.83827 0.99067,-3.35306 1.98134,-4.80096 0.990678,-1.44791 5.334408,-6.6299 5.334408,-6.6299 0,0 -1.066884,1.52412 -2.209972,3.42927 -1.143081,1.90515 -2.20995,5.10577 -2.972025,6.47747 -0.762046,1.37171 -3.353046,6.47748 -3.353046,6.47748 z"
       style="display:inline;opacity:1;fill:#4d4d4d;fill-opacity:1;stroke:none;stroke-width:0.3102859px;stroke-linecap:butt;stroke-linejoin:miter;stroke-opacity:1;enable-background:new" />
    <path
       inkscape:connector-curvature="0"
       id="path1251"
       d="m 80.264445,283.08853 c 0,0 1.219308,3.73408 0.533451,4.41992 -0.685849,0.68585 -3.505456,5.3344 -4.953373,6.09646 -1.447902,0.76205 -3.505456,2.8196 -3.276832,2.28617 0.228623,-0.53344 2.819607,-6.78231 4.191318,-8.15402 1.371698,-1.37169 2.286149,-2.74338 2.514786,-3.42924 0.228603,-0.68585 0.99065,-1.21929 0.99065,-1.21929 z"
       style="display:inline;opacity:1;fill:#9c9c9c;fill-opacity:1;stroke:none;stroke-width:0.3102859px;stroke-linecap:butt;stroke-linejoin:miter;stroke-opacity:1;enable-background:new" />
    <path
       inkscape:connector-curvature="0"
       id="path1132"
       d="m 79.082328,249.49126 c 0,0 4.418619,2.15542 5.711886,4.74192 1.293244,2.58652 3.340903,5.49632 4.310835,10.13049 0.969945,4.63414 1.508792,9.69939 1.832098,10.23823 0.323334,0.53887 1.939897,2.80206 1.939897,2.80206 0,0 -0.754414,-0.1078 -1.401033,0.86217 -0.646626,0.96995 -1.508793,1.61657 -4.095288,1.8321 -2.586509,0.21555 -7.328449,3.01761 -7.328449,3.01761 0,0 -0.969946,0 -0.969946,-2.37097 0,-2.37096 0.862176,-7.00513 1.616585,-8.40615 0.754387,-1.40102 0.431066,-2.80204 0.862154,-5.81964 0.431083,-3.01758 1.077721,-7.75951 1.077721,-8.94499 0,-1.18549 -0.646638,-3.34091 -0.646638,-3.34091 l -0.431083,3.23314 c 0,0 -2.263188,-3.12536 -2.370957,-3.66423 -0.107803,-0.53885 -0.107803,-4.31083 -0.107803,-4.31083 z"
       style="display:inline;opacity:1;fill:#cccccc;stroke:none;stroke-width:0.3102859px;stroke-linecap:butt;stroke-linejoin:miter;stroke-opacity:1;enable-background:new" />
    <path
       inkscape:connector-curvature="0"
       id="path1140"
       d="m 61.515656,218.66875 0.323313,1.93987"
       style="display:inline;opacity:1;fill:none;stroke:none;stroke-width:0.3102859px;stroke-linecap:butt;stroke-linejoin:miter;stroke-opacity:1;enable-background:new" />
    <path
       inkscape:connector-curvature="0"
       id="path1227"
       d="m 84.901983,226.5899 c 0,0 1.077707,1.83212 1.239366,2.74817 0.16166,0.91606 0.215538,2.10154 -0.10781,2.90982 -0.323299,0.80829 -0.484959,2.74816 -1.401001,3.87976 -0.916075,1.13159 -1.347149,1.0777 -1.347149,-0.32332 0,-1.40101 -0.700518,-2.37096 -0.48498,-4.25696 0.215531,-1.88598 0.916054,-5.44242 0.916054,-5.44242 z"
       style="display:inline;opacity:1;fill:#cccccc;fill-opacity:1;stroke:none;stroke-width:0.3102859px;stroke-linecap:butt;stroke-linejoin:miter;stroke-opacity:1;enable-background:new" />
    <path
       inkscape:connector-curvature="0"
       id="path1225"
       d="m 84.474819,228.22047 c 0.05717,0.1524 0.819223,0.80014 0.762057,1.27644 -0.05717,0.47628 0.476292,-0.0762 0.495338,1.25739 0.01901,1.3336 -0.247662,2.68625 -0.819199,3.10537 -0.571553,0.41914 -1.676536,0.60965 -1.581277,-0.64774 0.09516,-1.25739 0.209563,-2.72435 0.171457,-3.60073 -0.03816,-0.87636 0.09517,-1.29549 0.247669,-1.48599 0.152411,-0.19052 0.723955,0.0952 0.723955,0.0952 z"
       style="display:inline;opacity:1;fill:#999999;fill-opacity:1;stroke:none;stroke-width:0.3102859px;stroke-linecap:butt;stroke-linejoin:miter;stroke-opacity:1;enable-background:new" />
    <path
       inkscape:connector-curvature="0"
       id="path2812"
       d="m 70.255362,221.18115 c 0,0 0.388212,4.62766 -0.703106,4.52812 -1.091319,-0.0995 -4.115128,0.51467 -4.493104,0.51467 -0.377976,0 -2.438064,2.01865 -2.438064,2.01865 l -0.389602,-2.01113 c 0,0 4.150582,-3.17307 4.623051,-3.64554 0.472472,-0.47247 1.876716,-2.09062 1.876716,-2.09062 z"
       style="fill:#cccccc;fill-opacity:1;stroke:none;stroke-width:0.26458332px;stroke-linecap:butt;stroke-linejoin:miter;stroke-opacity:1" />
    <path
       inkscape:connector-curvature="0"
       id="path2810"
       d="m 62.231486,226.23146 0.389601,2.01113 c 0,0 1.047594,2.34682 1.233039,2.55545 0.185445,0.20862 0.440432,3.63935 0.440432,3.63935 l 0.904042,2.03989 0.973585,1.41401 -0.193694,0.83182 0.471861,1.16171 -4.142772,0.92984 -0.23836,-7.55948 -0.221091,-6.43235 z"
       style="fill:#cccccc;fill-opacity:1;stroke:none;stroke-width:0.18358085px;stroke-linecap:butt;stroke-linejoin:miter;stroke-opacity:1" />
    <path
       inkscape:connector-curvature="0"
       id="path1917"
       d="m 61.569961,224.55304 7.982294,1.15623 12.590929,-2.67557 0.524621,2.67557 -12.538462,2.2034 -8.281215,-1.08984 z"
       style="fill:#1a1a1a;fill-opacity:1;stroke:none;stroke-width:0.18358085px;stroke-linecap:butt;stroke-linejoin:miter;stroke-opacity:1;enable-background:new" />
    <path
       inkscape:connector-curvature="0"
       id="path1142"
       d="m 60.541298,217.39938 -0.577275,2.97537 1.050224,-1.49244 -0.718578,2.37684 3.813975,-5.30641 -0.110558,1.43715 c 0,0 3.040128,-2.6532 3.482331,-3.7587 0.442196,-1.10551 0.497476,-1.21607 0.497476,-1.21607 l 0.110558,1.60298 c 0,0 2.321549,-0.44219 4.477267,-1.93462 2.155733,-1.49242 2.266291,-1.71352 2.266291,-1.71352 0,0 -4.477287,3.48232 -5.969708,4.64311 -1.492428,1.16076 -2.321549,1.43716 -2.045169,1.43716 0.276367,0 3.979792,-0.77387 5.306397,-1.87937 1.32659,-1.10551 1.38187,-1.16077 1.38187,-1.16077 l -0.994944,1.71352 c 0,0 0.0553,0.2211 1.713534,-1.10551 1.658236,-1.32658 1.713517,-1.38186 1.713517,-1.38186 l -2.542653,2.48737 c 0,0 2.045176,-0.27636 3.482311,-1.27133 l 1.437163,-0.99493 -1.160761,1.54769 c 0,0 0.939665,0.0552 2.376813,-1.21605 l 1.43715,-1.27132 c 0,0 -1.547693,1.76879 -1.879339,3.70342 -0.331646,1.93462 -0.331646,2.43211 -0.331646,2.43211 l 1.105482,-1.76882 -0.994952,3.20596 1.050231,-1.38188 0.165816,2.32155 0.884408,-1.38188 0.276387,1.93462 1.271319,-1.16076 c 0,0 -1.105504,0.99496 -0.994951,2.8743 0.110661,1.87935 0.884406,8.07016 0.994951,8.34652 0.110536,0.27639 -0.552741,4.8642 -0.773865,7.46214 -0.221086,2.59792 0.331668,4.03507 0.331668,4.03507 l 0.497468,-3.59286 c 0,0 0.994961,-5.69333 0.994961,-5.96971 0,-0.27638 0.276374,-2.10046 0.276374,-2.32155 0,-0.22111 0.16583,-2.65321 0.16583,-2.65321 l 0.497476,0.99494 0.276369,-2.43208 0.276374,0.38692 0.71857,-1.98992 0.884401,1.49245 0.442218,-1.38189 0.608019,1.9899 c 0,0 2.553691,-10.07753 1.615628,-12.73533 -0.938042,-2.65779 -1.094387,-3.12682 -1.094387,-3.12682 l 1.094387,1.71974 c 0,0 -0.547197,-4.29937 -1.876092,-7.34803 -1.328908,-3.04865 -3.595846,-5.94098 -5.237447,-6.95719 -1.641591,-1.01622 -3.908533,-1.56342 -3.908533,-1.56342 l 1.719747,-0.0782 c 0,0 -3.126825,-2.34513 -5.315604,-2.57964 -2.188782,-0.23452 -2.735958,-0.39086 -2.735958,-0.39086 l 1.250711,-0.93804 c 0,0 -3.36133,-0.85988 -5.237429,-0.93805 -1.876097,-0.0781 -2.188779,-0.0781 -2.188779,-0.0781 l 3.595857,-0.31268 c 0,0 -2.345119,-0.93806 -4.143047,-0.5472 -1.797931,0.39085 -5.00293,1.64158 -5.00293,1.64158 l -0.938041,0.23451 z"
       style="display:inline;opacity:1;fill:#1a1a1a;fill-opacity:1;stroke:none;stroke-width:0.31828696px;stroke-linecap:butt;stroke-linejoin:miter;stroke-opacity:1;enable-background:new" />
    <circle
       r="5.6579804"
       cy="227.18265"
       cx="72.939377"
       id="path1148"
       style="display:inline;opacity:1;fill:#1a1a1a;fill-opacity:1;stroke:none;stroke-width:0.93085772;stroke-miterlimit:4;stroke-dasharray:none;stroke-opacity:1;enable-background:new" />
    <path
       inkscape:connector-curvature="0"
       id="path1160"
       d="m 61.822691,228.29666 1.676526,4.80095 -0.152418,1.82894 1.143089,0.53345 -0.914466,2.8196 c 0,0 -1.295499,-0.30482 -1.295499,-0.68585 0,-0.38102 -0.457232,-9.29709 -0.457232,-9.29709 z"
       style="display:inline;opacity:1;fill:#ececec;fill-opacity:1;stroke:none;stroke-width:0.3102859px;stroke-linecap:butt;stroke-linejoin:miter;stroke-opacity:1;enable-background:new" />
    <path
       inkscape:connector-curvature="0"
       id="path1162"
       d="m 66.292681,225.22006 2.438573,-4.72476 8.916062,-1.60032 -2.13375,2.28617 h -5.258205 z"
       style="display:inline;opacity:1;fill:#1a1a1a;fill-opacity:1;stroke:none;stroke-width:0.3102859px;stroke-linecap:butt;stroke-linejoin:miter;stroke-opacity:1;enable-background:new" />
    <path
       inkscape:connector-curvature="0"
       id="path1164"
       d="m 62.485594,243.77939 5.927413,-0.48497 1.616556,2.85594 h 1.939884 l 0.431073,1.8321 -0.538842,2.26319 -1.077713,0.37721 -2.263191,2.80204 -5.819643,-0.91605 z"
       style="display:inline;opacity:1;fill:#b3b3b3;fill-opacity:1;stroke:none;stroke-width:0.3102859px;stroke-linecap:butt;stroke-linejoin:miter;stroke-opacity:1;enable-background:new" />
    <path
       inkscape:connector-curvature="0"
       id="path1229"
       d="m 80.035843,283.46955 0.228602,3.20064 c 0,0 -5.258174,6.55368 -5.791625,7.16332 -0.533433,0.60965 -1.905129,2.43859 -1.905129,2.43859 0,0 2.590978,-6.24887 3.429243,-7.92539 0.838267,-1.67652 1.143088,-2.43858 2.286176,-4.1151 1.143083,-1.67652 2.057554,-3.58167 2.057554,-3.58167 z"
       style="display:inline;opacity:1;fill:#cccccc;fill-opacity:1;stroke:none;stroke-width:0.3102859px;stroke-linecap:butt;stroke-linejoin:miter;stroke-opacity:1;enable-background:new" />
    <path
       inkscape:connector-curvature="0"
       id="path1235"
       d="m 100.00173,271.8863 c 0,0 0.99066,2.13375 0.83827,2.89581 -0.15243,0.76206 -0.53346,2.89582 -0.53346,4.26751 0,1.37169 0.30484,3.88648 0.30484,3.88648 0,0 -0.22864,5.10579 -0.45724,5.48682 -0.228631,0.38103 -1.2955,4.11511 -1.2955,4.11511 0,0 0.304814,-0.22862 1.21929,-1.2955 0.91446,-1.06689 0.99067,-4.72475 1.14308,-5.56301 0.15242,-0.83827 -0.15241,-3.27684 -0.15241,-4.11512 0,-0.83826 -0.53343,-3.04821 -0.30482,-4.03889 0.22861,-0.99067 0.38103,-2.89581 0.38103,-3.50546 0,-0.60964 -1.14308,-2.13375 -1.14308,-2.13375 z"
       style="display:inline;opacity:1;fill:#b3b3b3;stroke:none;stroke-width:0.3102859px;stroke-linecap:butt;stroke-linejoin:miter;stroke-opacity:1;enable-background:new" />
    <path
       inkscape:connector-curvature="0"
       id="path1237"
       d="m 104.26924,278.28756 c 0,0 -1.21929,4.49614 -1.52411,5.33441 -0.30483,0.83825 -0.30483,3.73406 -0.53345,4.64854 -0.2286,0.91446 0.30483,3.96269 0.30483,3.96269 0,0 0.22862,-3.58166 0.45724,-5.10577 0.2286,-1.5241 0.83826,-2.13375 0.99067,-3.12445 0.15241,-0.99066 0.45723,-3.65787 0.45723,-4.11509 0,-0.45724 -0.15241,-1.60033 -0.15241,-1.60033 z"
       style="display:inline;opacity:1;fill:#b3b3b3;stroke:none;stroke-width:0.3102859px;stroke-linecap:butt;stroke-linejoin:miter;stroke-opacity:1;enable-background:new" />
    <path
       inkscape:connector-curvature="0"
       id="path1239"
       d="m 104.65027,290.25185 c 0.15241,-0.30482 3.20064,-4.26751 3.42925,-4.64852 0.22861,-0.38105 2.36238,-1.29551 2.36238,-1.29551 0,0 -2.43858,1.75272 -2.74341,2.28616 -0.30482,0.53345 -3.04822,3.65787 -3.04822,3.65787 z"
       style="display:inline;opacity:1;fill:#b3b3b3;stroke:none;stroke-width:0.3102859px;stroke-linecap:butt;stroke-linejoin:miter;stroke-opacity:1;enable-background:new" />
    <path
       inkscape:connector-curvature="0"
       id="path1241"
       d="m 111.12775,285.60333 c -0.68585,0.99065 -3.04823,7.01089 -3.35305,7.62054 -0.30483,0.60964 -1.82893,3.35305 -1.82893,3.35305 0,0 2.66719,-4.72475 2.97202,-5.2582 0.30482,-0.53342 1.29549,-2.51477 1.4479,-3.04821 0.1524,-0.53345 0.22862,-1.4479 0.45722,-1.82893 0.22863,-0.38104 0.30484,-0.83825 0.30484,-0.83825 z"
       style="display:inline;opacity:1;fill:#b3b3b3;stroke:none;stroke-width:0.3102859px;stroke-linecap:butt;stroke-linejoin:miter;stroke-opacity:1;enable-background:new" />
    <path
       inkscape:connector-curvature="0"
       id="path1243"
       d="m 115.01424,280.80235 c -1.44791,6.62989 -2.51479,12.0405 -3.42926,13.4122 -0.91446,1.37169 -1.2955,2.591 -1.2955,2.591 0,0 0.68586,1.06687 0.83827,0 0.15241,-1.06688 1.90513,-3.58168 1.90513,-3.58168 l 0.0762,3.12443 c 0,0 0.45724,-1.4479 0.60964,-2.20996 0.15242,-0.76205 -0.22861,-0.30483 0.15242,-2.81962 0.38104,-2.51477 0.68584,-3.73405 1.21929,-5.25818 0.53343,-1.5241 -0.0762,-5.25819 -0.0762,-5.25819 z"
       style="display:inline;opacity:1;fill:#b3b3b3;stroke:none;stroke-width:0.3102859px;stroke-linecap:butt;stroke-linejoin:miter;stroke-opacity:1;enable-background:new" />
    <path
       inkscape:connector-curvature="0"
       id="path1249"
       d="m 86.589534,281.94544 c 0,0 1.295499,-0.91446 1.447896,-0.53344 0.152418,0.38103 -2.286149,8.0778 -2.972018,9.90672 -0.685844,1.82894 -1.295502,6.02026 -1.066871,5.2582 0.228616,-0.76206 2.286158,-6.40128 2.514788,-7.31573 0.228616,-0.91448 2.057553,-6.78231 2.057553,-7.23955 0,-0.45724 0.838253,-1.06688 -0.07616,-1.21929 -0.914486,-0.15241 -2.209971,0.45725 -2.209971,0.45725 z"
       style="display:inline;opacity:1;fill:#9c9c9c;fill-opacity:1;stroke:none;stroke-width:0.3102859px;stroke-linecap:butt;stroke-linejoin:miter;stroke-opacity:1;enable-background:new" />
    <path
       inkscape:connector-curvature="0"
       id="path1370"
       d="m 64.185066,297.41519 c 0.609643,-0.45724 -0.457232,-1.90515 1.905142,-2.51479 2.362375,-0.60964 1.600315,0.99066 3.657874,-1.98134 2.057561,-2.97203 3.200635,-4.11511 4.877154,-6.02025 1.676534,-1.90513 4.648546,-4.0389 4.648546,-4.0389 0,0 -3.048232,5.71542 -4.115113,7.54436 -1.066869,1.82893 -1.676506,4.26752 -1.981343,4.80095 -0.304814,0.53345 0,1.67653 -1.600307,1.98136 -1.60032,0.30481 -7.391953,0.22861 -7.391953,0.22861 z"
       style="display:inline;opacity:1;fill:#cccccc;fill-opacity:1;stroke:none;stroke-width:0.3102859px;stroke-linecap:butt;stroke-linejoin:miter;stroke-opacity:1;enable-background:new" />
    <path
       inkscape:connector-curvature="0"
       id="path1170"
       d="m 63.186103,245.50374 4.741931,0.10779 c 0,0 2.694271,1.72435 2.478727,1.72435 -0.215537,0 -0.862164,1.77821 -2.101531,1.67045 -1.239373,-0.1078 -5.442438,-0.48497 -5.442438,-0.48497 l -0.215539,-2.58651 z"
       style="display:inline;opacity:1;fill:#666666;fill-opacity:1;stroke:none;stroke-width:0.3102859px;stroke-linecap:butt;stroke-linejoin:miter;stroke-opacity:1;enable-background:new" />
    <path
       inkscape:connector-curvature="0"
       id="path967"
       d="m 50.80748,255.83721 c 0,0 -9.703888,6.3161 -11.428219,6.74719 -1.724332,0.43108 -11.544286,4.95818 -13.297017,6.63469 -1.752732,1.67653 -3.200635,2.97202 -4.191313,3.81028 -0.990663,0.83827 -2.590991,1.90515 -2.972018,2.97203 -0.381028,1.06688 -2.286163,7.31573 -2.286163,7.31573 0,0 -2.902995,7.71883 -2.902995,9.44317 0,1.72433 -0.431088,4.95747 -0.431088,4.95747 l 50.652392,-0.21554 c -0.02664,-2.1193 0.663119,-2.74252 -0.27013,-4.97099 -0.826506,-1.97358 -4.190646,-5.60876 -5.04265,-7.51051 -0.166607,-0.3719 -0.0134,-1.00855 -0.187665,-1.37025 -0.873188,-1.8126 -1.850011,-3.48703 -3.008052,-4.91985 z"
       style="display:inline;opacity:1;fill:#f2f2f2;stroke:none;stroke-width:0.3102859px;stroke-linecap:butt;stroke-linejoin:miter;stroke-opacity:1;enable-background:new" />
    <path
       inkscape:connector-curvature="0"
       id="path1253"
       d="m 51.230108,259.31236 c 0,0 1.371706,4.80095 1.752726,7.84919 0.381034,3.04822 2.209965,9.83052 2.362376,10.89741 0.15241,1.06687 -0.304822,0.76205 0.533444,1.82893 0.83826,1.06687 3.048218,2.6672 2.819608,3.27684 -0.228617,0.60964 -0.152411,1.90514 -1.219294,0.53345 -1.066877,-1.37172 -3.048224,-3.35307 -3.886492,-5.71544 -0.838259,-2.36237 -2.057545,-6.6299 -2.133751,-9.5257 -0.0762,-2.89581 -0.685856,-4.87715 -0.914471,-6.09645 -0.228617,-1.21928 0.685854,-3.04823 0.685854,-3.04823 z"
       style="display:inline;opacity:1;fill:#ffcd94;fill-opacity:1;stroke:none;stroke-width:0.3102859px;stroke-linecap:butt;stroke-linejoin:miter;stroke-opacity:1;enable-background:new" />
    <path
       inkscape:connector-curvature="0"
       id="path969"
       d="m 42.08543,266.24708 c 0,0 -0.685849,2.36237 -0.60965,2.97201 0.07621,0.60965 -0.07619,6.02026 -0.457225,7.01093 -0.381034,0.99067 -0.838266,1.98134 1.219286,3.65787 2.057546,1.67651 3.276841,2.59099 3.581663,2.59099 0.304828,0 1.60032,-0.53344 2.362375,0 0.76206,0.53344 1.676526,1.29549 3.048229,1.29549 1.371699,0 2.362376,-0.60964 2.667197,0.15242 0.304823,0.76205 0.228617,3.04822 1.219295,4.49613 0.99067,1.4479 3.200627,2.6672 4.1151,3.50545 0.914472,0.83827 0.609651,0.0763 0.609651,0.0763 l 3.353045,1.06687 c 0,0 -4.572348,-2.74338 -5.944045,-5.02957 -1.371697,-2.28616 -1.676525,-4.11509 -2.667197,-4.95336 -0.99067,-0.83826 -3.048217,-0.76206 -4.496126,-1.60033 -1.44791,-0.83825 -3.200643,-0.30481 -4.496134,-3.12442 -1.295507,-2.8196 -1.600328,-2.8196 -1.981348,-5.86784 -0.381035,-3.04821 -1.524116,-6.24886 -1.524116,-6.24886 z"
       style="display:inline;opacity:1;fill:#999999;fill-opacity:0.95;stroke:none;stroke-width:0.3102859px;stroke-linecap:butt;stroke-linejoin:miter;stroke-opacity:1;enable-background:new" />
    <path
       inkscape:connector-curvature="0"
       id="path959"
       d="m 52.473438,252.23839 c 0,0 9.807173,6.03516 10.02271,6.3046 0.215544,0.26943 0.646632,7.97504 0.646632,8.5678 0,0.59273 0.646626,19.61433 0.646626,19.61433 l 0.269428,6.57403 -5.657984,-8.51391 -0.161659,-0.70051 c 0,0 0.484973,-0.32331 -0.161654,-1.29326 -0.646625,-0.96994 -2.155419,-2.47874 -2.317081,-2.85593 -0.161652,-0.37721 -1.401019,-6.62792 -1.778215,-8.29837 -0.377198,-1.67046 -1.508803,-6.52014 -1.778225,-8.02894 -0.269429,-1.50881 -0.70051,-5.44245 -0.70051,-6.03519 0,-0.59274 0.969932,-5.33465 0.969932,-5.33465 z"
       style="display:inline;opacity:1;fill:#ffe0bd;fill-opacity:0.99500002;stroke:none;stroke-width:0.3102859px;stroke-linecap:butt;stroke-linejoin:miter;stroke-opacity:1;enable-background:new" />
    <path
       inkscape:connector-curvature="0"
       id="path965"
       d="m 53.389491,268.02684 c 1.131605,0.32331 5.819645,2.64039 5.442447,0.96993 -0.377203,-1.67045 -1.939884,-4.20306 -1.939884,-4.20306 0,0 0.377206,0.32332 2.370965,0.26943 1.993769,-0.0538 4.275401,4.69463 4.167631,4.20966 -0.107769,-0.48497 0.512796,-7.44279 -2.019787,-7.98165 -2.532619,-0.53886 -5.704291,-1.72434 -7.482507,-1.99375 -1.778225,-0.26945 -3.556447,-1.23938 -2.586502,1.02381 0.969938,2.26319 2.047637,7.70563 2.047637,7.70563 z"
       style="display:inline;opacity:1;fill:#ffcd94;fill-opacity:1;stroke:none;stroke-width:0.3102859px;stroke-linecap:butt;stroke-linejoin:miter;stroke-opacity:1;enable-background:new" />
    <path
       inkscape:connector-curvature="0"
       id="path963"
       d="m 62.933362,265.78244 c 0.591814,0.99404 -0.943149,1.27533 -4.387511,-2.31686 -1.714632,-0.91448 -3.276848,-1.82893 -3.695974,-1.44792 -0.419133,0.38104 -0.03809,1.98134 0.419126,2.51479 0.457239,0.53343 1.714632,1.29549 1.447911,1.75274 -0.266722,0.45723 -1.638428,1.02876 -2.324269,1.06687 -0.685856,0.0382 -1.066884,-0.83827 -1.409811,-1.79083 -0.342922,-0.95258 -0.685849,-1.67653 -0.99067,-2.89583 -0.304822,-1.21928 -0.533439,-3.23873 -0.533439,-3.96268 0,-0.72395 -0.381027,-1.79084 0.114313,-3.27685 0.49533,-1.48601 -0.190517,-2.78149 0.952564,-2.93392 1.143081,-0.1524 -0.800161,-1.29549 2.933919,1.10499 3.734079,2.40048 5.486805,3.77218 5.753527,4.34372 0.266721,0.57155 1.181179,0.76206 1.371698,2.09565 0.190516,1.33361 1.931882,6.61053 1.931882,6.61053 z"
       style="display:inline;opacity:1;fill:#ffb380;stroke:none;stroke-width:0.3102859px;stroke-linecap:butt;stroke-linejoin:miter;stroke-opacity:1;enable-background:new" />
    <path
       inkscape:connector-curvature="0"
       id="path961"
       d="m 63.942553,262.93313 c 0,0 -3.83629,0.86802 -5.967553,-0.26939 -2.131279,-1.1374 -4.475673,-1.34691 -4.3478,-0.62855 0.127886,0.71835 0.937764,3.41219 0.426259,2.06526 -0.511502,-1.34691 -0.809884,-2.69383 -0.937762,-3.92103 -0.127872,-1.22719 -1.108259,-5.92644 -0.04262,-5.8965 1.065627,0.03 3.32477,0.20951 4.98716,1.25712 1.662398,1.04761 4.177292,2.39453 4.774046,3.26255 0.596761,0.86801 0.116084,2.418 0.07345,2.83705 -0.04262,0.41903 1.034823,1.29349 1.034823,1.29349 z"
       style="display:inline;opacity:1;fill:#deaa87;stroke:none;stroke-width:0.29087308px;stroke-linecap:butt;stroke-linejoin:miter;stroke-opacity:1;enable-background:new" />
    <path
       inkscape:connector-curvature="0"
       id="path867"
       d="m 45.213343,240.97333 c 0,0 1.416444,5.42966 2.360731,6.9051 0.944279,1.47545 4.957509,4.60341 5.311615,4.95753 0.354105,0.3541 3.777146,2.89188 4.662421,3.71813 0.885267,0.82624 3.541078,2.24267 4.42636,2.41972 0.885262,0.17707 1.062318,0.059 1.062318,0.059 l -1.18866,-32.20996 -0.935997,-28.93272 -19.121829,25.67285 z"
       style="display:inline;opacity:1;fill:#ffe0bd;fill-opacity:1;stroke:none;stroke-width:0.16525048px;stroke-linecap:butt;stroke-linejoin:miter;stroke-opacity:1;enable-background:new" />
    <path
       inkscape:connector-curvature="0"
       id="path904"
       d="m 56.622627,235.31833 c -0.431083,0.45803 -1.885987,1.4549 -2.936765,1.58961 -1.050765,0.13472 -4.957459,0.0538 -5.361605,0.0538 -0.404146,0 -0.781337,-0.3233 -0.808287,-0.027 -0.02692,0.29639 -0.43108,0.86218 0.134719,0.943 0.565806,0.0808 2.101537,0.13472 3.28702,0.18861 1.185482,0.0539 2.047651,0.13472 3.179249,-0.35026 1.131585,-0.48496 2.020696,-0.70052 2.478727,-1.32018 0.458023,-0.61969 1.320199,-1.61657 1.481852,-1.96684 0.161654,-0.35026 1.077707,-1.2663 0.269429,-0.91604 -0.808285,0.35024 -1.347135,1.21242 -1.481847,1.37407 -0.134724,0.16166 -0.242492,0.43108 -0.242492,0.43108 z"
       style="display:inline;opacity:1;fill:#ffcd94;fill-opacity:1;stroke:none;stroke-width:0.3102859px;stroke-linecap:butt;stroke-linejoin:miter;stroke-opacity:1;enable-background:new" />
    <path
       inkscape:connector-curvature="0"
       id="path926"
       d="m 61.041244,227.26245 c 0,0 0.215544,4.25695 -0.269429,6.06211 -0.484973,1.80517 -0.808286,2.72121 -0.754394,2.99064 0.05384,0.26943 -0.942996,0.0539 -1.481854,-0.1886 -0.538863,-0.24248 -0.889119,0.32332 -1.023828,-0.027 -0.134712,-0.35025 -0.215537,-0.45803 0.161659,-1.42797 0.377203,-0.96993 0.404139,-0.8891 1.077708,-2.82899 0.673574,-1.93987 0.754399,-2.69427 1.131598,-3.47562 0.377196,-0.78133 0.431081,-1.10464 0.565798,-1.13159 0.134712,-0.0269 0.592742,0.0269 0.592742,0.0269 z"
       style="display:inline;opacity:1;fill:#ffcd94;fill-opacity:1;stroke:none;stroke-width:0.3102859px;stroke-linecap:butt;stroke-linejoin:miter;stroke-opacity:1;enable-background:new" />
    <path
       inkscape:connector-curvature="0"
       id="path955"
       d="m 51.341854,251.75341 c 0,0 -2.478741,3.61034 -3.071482,4.63416 -0.592742,1.02382 -1.670456,2.04764 -2.748161,3.44866 -1.077715,1.40104 -2.047646,3.50256 -2.855931,4.74193 -0.808286,1.23937 -0.700511,5.44244 -0.700511,5.44244 0,0 -0.05384,2.10153 -0.107775,3.12536 -0.05384,1.02384 -0.969939,4.04142 -0.969939,4.04142 0,0 0.969939,1.29325 1.562687,1.72433 0.592735,0.4311 2.26319,2.10156 3.771984,2.47874 1.508789,0.37721 7.975052,1.02383 8.298365,0.96994 0.323312,-0.0538 -0.592742,-7.92118 -0.592742,-8.2445 0,-0.3233 -1.778218,-8.89109 -1.939877,-9.48384 -0.161652,-0.59274 -0.646625,-6.62792 -0.538856,-7.22066 0.107775,-0.59273 0.59274,-3.82588 0.700515,-4.25696 0.107777,-0.43108 0.538851,-1.67046 0.538851,-1.67046 l -1.023821,-0.91604 z"
       style="display:inline;opacity:1;fill:#e6e6e6;fill-opacity:0.95999995;stroke:none;stroke-width:0.3102859px;stroke-linecap:butt;stroke-linejoin:miter;stroke-opacity:1;enable-background:new" />
    <path
       inkscape:connector-curvature="0"
       id="path957"
       d="m 48.701453,256.06426 c -0.323311,0.21553 -1.185483,1.50878 -0.215537,2.5865 0.969939,1.07771 3.12536,3.34091 3.12536,3.34091 0,0 -0.323314,-4.04142 -0.16166,-4.68805 0.16166,-0.64664 1.239373,-4.4725 1.077714,-5.33467 -0.16166,-0.86216 -0.377199,-1.18548 -0.377199,-1.18548 0,0 -0.808277,0.32332 -0.862169,0.59275 -0.05384,0.26941 -2.532617,3.87975 -2.532617,3.87975 z"
       style="display:inline;opacity:1;fill:#cccccc;stroke:none;stroke-width:0.3102859px;stroke-linecap:butt;stroke-linejoin:miter;stroke-opacity:1;enable-background:new" />
    <path
       inkscape:connector-curvature="0"
       id="path951"
       d="m 49.725283,227.72046 c 0,0 1.912935,1.93989 3.637273,1.75128 1.724333,-0.1886 3.771984,-0.37719 3.852812,-0.88911 0.08083,-0.51191 -1.185483,-2.04764 -2.020702,-2.26319 -0.835229,-0.21555 -2.559569,-0.5658 -3.367846,-0.37721 -0.808286,0.1886 -1.26631,0.0808 -1.751283,0.72747 -0.484973,0.64662 -0.350254,1.05076 -0.350254,1.05076 z"
       style="display:inline;opacity:1;fill:#ffffff;stroke:none;stroke-width:0.3102859px;stroke-linecap:butt;stroke-linejoin:miter;stroke-opacity:1;enable-background:new" />
    <path
       inkscape:connector-curvature="0"
       id="path854"
       d="m 40.314846,228.99266 c 0,0 0.531162,4.72144 0.708211,5.13458 0.177057,0.41312 1.534475,2.36072 1.534475,2.36072 l 0.413117,2.0066 c 0,0 0.590189,0.64921 0.708219,1.00331 0.118031,0.3541 0.35412,0.82626 0.826264,1.29841 0.472143,0.47214 0.767223,0.59016 0.767223,0.59016 0,0 0,-2.41974 -0.354105,-4.36732 -0.354107,-1.9476 -0.590182,-4.07225 -1.180355,-5.37064 -0.590182,-1.2984 -1.239388,-2.36073 -1.770551,-3.00993 -0.531155,-0.6492 -1.357404,-1.3574 -1.357404,-1.3574 z"
       style="display:inline;opacity:1;fill:#eac086;fill-opacity:1;stroke:none;stroke-width:0.16525048px;stroke-linecap:butt;stroke-linejoin:miter;stroke-opacity:1;enable-background:new" />
    <path
       inkscape:connector-curvature="0"
       id="path918"
       d="m 55.802441,247.00515 c 0,0 2.857715,3.81029 3.657875,4.11511 0.80016,0.30482 3.200642,0.83826 3.23874,0.64774 0.03809,-0.19051 0.304822,-3.46735 -0.342927,-3.65786 -0.647743,-0.19052 -2.286169,-0.30482 -3.124429,-0.49534 -0.838261,-0.19051 -2.209964,-0.41914 -2.705304,-0.64775 -0.495338,-0.22862 -1.028776,-0.49533 -1.028776,-0.49533 z"
       style="display:inline;opacity:1;fill:#dbac98;fill-opacity:1;stroke:none;stroke-width:0.3102859px;stroke-linecap:butt;stroke-linejoin:miter;stroke-opacity:1;enable-background:new" />
    <path
       inkscape:connector-curvature="0"
       id="path906"
       d="m 57.669484,254.85434 c -0.0762,-0.49535 -1.867043,-3.12445 -1.981347,-3.50547 -0.114306,-0.38103 -0.419134,-1.06688 -0.419134,-1.06688 0,0 -0.190517,1.18119 0.114312,1.71464 0.304822,0.53343 1.447909,1.60031 1.524116,2.05754 0.0762,0.45724 0.762053,0.80017 0.762053,0.80017 z"
       style="display:inline;opacity:1;fill:#ffcd94;fill-opacity:1;stroke:none;stroke-width:0.3102859px;stroke-linecap:butt;stroke-linejoin:miter;stroke-opacity:1;enable-background:new" />
    <path
       inkscape:connector-curvature="0"
       id="path876"
       d="m 57.231299,226.65825 c -0.0762,-0.0572 -1.524108,-1.73368 -2.895807,-1.92419 -1.371704,-0.19051 -2.362382,-0.28578 -4.096061,0.26672 -1.733677,0.55248 -1.847982,1.82892 -1.847982,1.82892 0,0 1.371698,-1.56221 3.467356,-1.69556 2.095652,-0.13336 3.829332,0.51437 4.324671,0.8192 0.495338,0.30482 1.047823,0.70491 1.047823,0.70491 z"
       style="display:inline;opacity:1;fill:#eac086;fill-opacity:1;stroke:none;stroke-width:0.3102859px;stroke-linecap:butt;stroke-linejoin:miter;stroke-opacity:1;enable-background:new" />
    <path
       inkscape:connector-curvature="0"
       id="path884"
       d="m 54.106876,226.92497 c 0.01908,-0.20957 -0.45724,-1.20023 -0.400087,-0.78112 0.05717,0.41914 -0.09526,0.4763 0.09527,0.70491 0.190511,0.22862 0.304822,0.0762 0.304822,0.0762 z"
       style="display:inline;opacity:1;fill:#cccccc;stroke:none;stroke-width:0.3102859px;stroke-linecap:butt;stroke-linejoin:miter;stroke-opacity:1;enable-background:new" />
    <path
       inkscape:connector-curvature="0"
       id="path880"
       d="m 47.362671,228.0109 c 0.209563,-0.0762 0.971619,-0.0952 1.657467,-0.78112 0.685857,-0.68585 1.276453,-1.20024 2.457634,-1.33359 1.181194,-0.13336 1.466963,-0.45723 2.533838,-0.15242 1.066876,0.30483 1.619374,0.38104 2.267117,0.93353 0.647756,0.55248 1.486017,1.00971 1.333599,1.40979 -0.152405,0.40008 -0.361975,0.60965 -1.028778,0.60965 -0.666795,0 -1.066874,0 -1.066874,0 0,0 1.752731,0.13336 1.562214,-0.49533 -0.190511,-0.6287 -1.238341,-1.21928 -1.581268,-1.46695 -0.342922,-0.24767 -1.82893,-0.76207 -2.610037,-0.60965 -0.781107,0.15241 -1.790831,0.24766 -2.076608,0.28577 -0.285775,0.0382 -0.83826,0.8192 -0.95257,1.04783 -0.114312,0.2286 0.171463,0.59059 -0.723949,0.59059 -0.895417,0 -1.771785,-0.0382 -1.771785,-0.0382 z"
       style="display:inline;opacity:1;fill:#eac086;fill-opacity:1;stroke:none;stroke-width:0.3102859px;stroke-linecap:butt;stroke-linejoin:miter;stroke-opacity:1;enable-background:new" />
    <ellipse
       ry="1.5717413"
       rx="1.8597316"
       cy="227.2393"
       cx="53.585171"
       id="path882"
       style="display:inline;opacity:1;fill:url(#linearGradient894);fill-opacity:1;stroke:none;stroke-width:0.89961189;stroke-miterlimit:4;stroke-dasharray:none;stroke-opacity:1;enable-background:new" />
    <path
       inkscape:connector-curvature="0"
       id="path896"
       d="m 48.639118,228.6015 c 0.01908,0.17145 1.047822,2.1909 2.000394,2.24806 0.952577,0.0572 2.514786,0.28577 2.514786,0.28577 0,0 -1.466956,-0.40008 -1.943241,-0.80016 -0.476286,-0.40008 -1.181189,-0.83826 -1.409804,-1.2193 -0.228624,-0.38103 -0.190511,-0.6287 -0.571544,-0.6287 -0.381028,0 -0.590591,0.11432 -0.590591,0.11432 z"
       style="display:inline;opacity:1;fill:#eac086;fill-opacity:1;stroke:none;stroke-width:0.3102859px;stroke-linecap:butt;stroke-linejoin:miter;stroke-opacity:1;enable-background:new" />
    <path
       inkscape:connector-curvature="0"
       id="path898"
       d="m 54.063066,224.05625 c 0.754394,0.37719 2.936765,1.21242 3.394788,2.2093 0.45803,0.9969 1.454912,4.01447 1.912934,3.20619 0.458031,-0.80829 0.592741,-3.34091 0.08083,-4.23002 -0.511916,-0.8891 -2.370965,-2.34401 -3.313969,-2.34401 -0.942989,0 -3.718094,-0.13472 -3.718094,-0.13472 z"
       style="display:inline;opacity:1;fill:#eac086;fill-opacity:1;stroke:none;stroke-width:0.3102859px;stroke-linecap:butt;stroke-linejoin:miter;stroke-opacity:1;enable-background:new" />
    <path
       inkscape:connector-curvature="0"
       id="path1223"
       d="m 45.057456,226.01049 1.066876,-2.36237 c 0,0 5.639215,-1.3717 7.315741,-1.21929 1.676527,0.15241 4.953366,1.14309 4.953366,1.14309 0,0 1.981343,1.82892 1.905136,2.36236 -0.0762,0.53345 -0.914464,4.57234 -0.914464,5.10579 0,0.53343 -2.209965,3.42925 -2.209965,3.42925 0,0 -4.48463,1.19092 -4.648544,1.44791 -0.588946,0.9234 -5.135752,-1.11341 -5.032056,-1.4504 0,0 -2.438587,-3.96269 -2.590998,-4.26752 -0.152412,-0.30482 0.1549,-4.18882 0.1549,-4.18882 z"
       style="display:inline;opacity:1;fill:#00aad4;fill-opacity:0.35499998;stroke:none;stroke-width:0.3102859px;stroke-linecap:butt;stroke-linejoin:miter;stroke-opacity:1;enable-background:new" />
    <path
       inkscape:connector-curvature="0"
       id="path932"
       d="m 58.126724,223.07658 c -0.419132,-0.60965 -4.267517,-2.47668 -4.267517,-2.47668 l 0.533438,0.57154 -2.057554,-0.53344 c 0,0 0.114305,0.38103 -0.11431,0.30482 -0.228617,-0.0761 -1.447912,0 -1.447912,0 l 0.07621,0.15242 -1.562215,0.15241 0.304822,0.30482 -1.867036,0.60964 0.83826,0.0382 -2.857708,0.83826 0.685841,0.19051 -0.533438,0.57154 0.723954,-0.26671 -0.0762,0.60965 2.095653,-0.83827 c 0,0 -1.295493,0.22862 0.03809,0.11431 1.333599,-0.11431 3.314947,-0.38103 3.314947,-0.38103 v 0.15241 h 2.552885 l -0.495338,0.19053 3.23874,-0.0382 0.571544,0.30484 z"
       style="display:inline;opacity:1;fill:#1a1a1a;fill-opacity:1;stroke:none;stroke-width:0.3102859px;stroke-linecap:butt;stroke-linejoin:miter;stroke-opacity:1;enable-background:new" />
    <path
       inkscape:connector-curvature="0"
       id="path900"
       d="m 53.605043,240.00637 c 0,0 -2.047652,1.91294 -3.179242,2.34401 -1.131606,0.4311 -1.508804,0.72747 -0.646633,0.29637 0.862169,-0.43108 1.29325,-1.02382 1.939875,-1.42795 0.646627,-0.40414 1.886,-1.21243 1.886,-1.21243 z"
       style="display:inline;opacity:1;fill:none;stroke:none;stroke-width:0.3102859px;stroke-linecap:butt;stroke-linejoin:miter;stroke-opacity:1;enable-background:new" />
    <path
       inkscape:connector-curvature="0"
       id="path902"
       d="m 51.96153,241.89236 c -0.727452,1.07771 -1.239366,2.23625 -0.808285,3.1523 0.431081,0.91605 0.61969,1.23936 0.61969,1.23936 0,0 -1.104656,-1.56267 -1.077713,-2.0207 0.02692,-0.45803 0.377196,-1.67045 0.565798,-1.80516 0.188596,-0.13471 0.70051,-0.5658 0.70051,-0.5658 z"
       style="display:inline;opacity:1;fill:none;stroke:none;stroke-width:0.3102859px;stroke-linecap:butt;stroke-linejoin:miter;stroke-opacity:1;enable-background:new" />
    <path
       inkscape:connector-curvature="0"
       id="path1919"
       d="m 62.84795,251.74166 4.674148,1.07579 3.116088,-2.11449 c 0,0 -1.966102,2.70804 -2.114489,2.70804 -0.148386,0 -5.935421,-0.74193 -5.935421,-0.74193 l -0.03712,-0.96451 z"
       style="fill:#666666;fill-opacity:1;stroke:none;stroke-width:0.18358085px;stroke-linecap:butt;stroke-linejoin:miter;stroke-opacity:1;enable-background:new" />
    <path
       inkscape:connector-curvature="0"
       id="path908"
       d="m 62.660958,258.3979 c -0.152418,-0.0762 -2.133766,-1.06689 -2.857714,-1.3717 -0.723956,-0.30482 -2.019448,-0.99068 -2.857714,-1.79084 -0.83826,-0.80015 -2.171865,-1.86703 -2.552885,-3.04822 -0.381035,-1.18119 -0.60965,-3.31494 -2.133766,-3.69598 -1.524108,-0.38102 -2.781501,-1.94325 -2.781501,-2.6672 0,-0.72395 -0.228617,-2.8196 -0.876366,-3.69597 -0.64775,-0.87636 -2.171859,-2.05756 -2.171859,-2.05756 0,0 -0.457239,-0.83826 -0.800161,-1.94324 -0.342919,-1.10497 -0.60965,-2.51479 -0.800159,-3.42924 -0.190511,-0.91449 -0.266722,-1.56222 -0.266722,-1.56222 0,0 -0.762048,1.10497 -0.495333,2.09565 0.266723,0.99067 1.981348,8.53503 1.981348,8.53503 0,0 1.181181,3.50546 1.257393,3.69597 0.0762,0.19053 3.238735,3.58166 3.543564,3.81029 0.304821,0.22862 3.657867,2.97202 3.924582,3.16254 0.266723,0.19051 4.724756,3.46735 4.724756,3.46735 0,0 2.286164,1.60033 3.124431,1.3717 0.83826,-0.22861 0.457232,-0.26673 0.457232,-0.57154 0,-0.30482 -0.419126,-0.30482 -0.419126,-0.30482 z"
       style="display:inline;opacity:1;fill:#ffcd94;fill-opacity:1;stroke:none;stroke-width:0.3102859px;stroke-linecap:butt;stroke-linejoin:miter;stroke-opacity:1;enable-background:new" />
    <path
       inkscape:connector-curvature="0"
       id="path869"
       d="m 52.71643,221.66359 c -0.764232,0.0104 -1.562179,0.0885 -2.553321,0.17202 -1.982264,0.16694 -6.366335,2.43552 -6.366335,2.43552 0,0 0.25254,4.74241 0.398595,5.01367 0.14607,0.27126 0.39641,1.46064 0.646807,2.14922 0.250382,0.68858 1.189264,2.17 1.71092,2.60819 0.521656,0.43819 1.815302,1.60694 2.670797,1.83647 0.855508,0.22953 2.211991,0.39635 3.192684,0.39635 0.980714,0 2.253413,-0.4175 3.192372,-0.68877 0.938978,-0.27124 1.314628,-0.60486 1.857135,-1.08478 0.542527,-0.47991 0.646805,-0.47984 1.064121,-1.0015 1.951804,-2.8479 2.086728,-3.63628 2.399683,-6.40604 l 0.91824,-0.27111 v -2.21184 c 0,0 -0.68857,-0.0627 -1.189347,0 -0.500787,0.0626 -0.500924,0.16686 -0.500924,0.16686 0,0 0.02075,0.0834 -0.438298,-0.47993 -0.459051,-0.56339 -0.292117,-0.25043 -1.189354,-0.95987 -0.897229,-0.70944 -1.752796,-1.06424 -3.463798,-1.43982 -0.855516,-0.18779 -1.585771,-0.24506 -2.349977,-0.23464 z m -0.728458,0.92502 c 0.423505,6.9e-4 0.86149,0.008 1.3049,0.019 2.375816,0.26545 4.951009,0.95287 6.030347,3.25531 1.618838,5.46896 -2.633699,9.482 -6.891233,9.64427 -3.485688,-0.005 -4.913267,-1.2949 -6.608965,-3.90634 -0.375586,-0.66771 -0.918239,-2.58716 -0.918239,-3.23401 0,-0.64684 0.104375,-1.66924 0.417329,-2.7334 0.312995,-1.06416 0.333796,-0.79301 1.001502,-1.62764 0.667726,-0.83466 1.502376,-0.81376 2.503934,-1.12675 0.751182,-0.23474 1.88987,-0.29342 3.160425,-0.29049 z"
       style="display:inline;opacity:1;fill:#000000;stroke:none;stroke-width:0.16525048px;stroke-linecap:butt;stroke-linejoin:miter;stroke-opacity:1;enable-background:new" />
    <path
       inkscape:connector-curvature="0"
       id="path910"
       d="m 55.040388,245.63345 c 0,0 2.705302,-1.5622 4.000794,-1.82894 1.295499,-0.26671 3.368837,0 3.368837,0 0,0 0.822476,1.98135 -0.01575,2.01945 -0.838267,0.0382 -2.629091,0.0763 -4.153206,-0.0762 -1.524114,-0.15241 -3.200635,-0.11431 -3.200635,-0.11431 z"
       style="display:inline;opacity:1;fill:#dbac98;fill-opacity:1;stroke:none;stroke-width:0.3102859px;stroke-linecap:butt;stroke-linejoin:miter;stroke-opacity:1;enable-background:new" />
    <path
       inkscape:connector-curvature="0"
       id="path912"
       d="m 54.468849,245.63345 c 0,0.56905 2.286164,0.71342 3.581663,0.64776 1.293834,-0.0656 4.496134,0.0762 4.534234,-0.0763 0.03809,-0.15241 0.457232,-0.49534 -0.0762,-0.53345 -0.533438,-0.0382 -7.087119,0 -7.506252,-0.1524 -0.419133,-0.15243 -0.990678,-0.38103 -0.990678,-0.38103 z"
       style="display:inline;opacity:1;fill:#c98276;fill-opacity:1;stroke:none;stroke-width:0.3102859px;stroke-linecap:butt;stroke-linejoin:miter;stroke-opacity:1;enable-background:new" />
    <path
       inkscape:connector-curvature="0"
       id="path914"
       d="m 54.735567,246.01448 c 0,0 1.295491,1.10498 1.600312,1.14309 0.304822,0.0382 1.219295,0.15241 0.952572,0.1143 -0.266715,-0.0382 -1.562209,-0.91446 -1.562209,-0.91446 l 1.943242,0.30482 -2.400481,-1.06686 z"
       style="display:inline;opacity:1;fill:#c98276;fill-opacity:1;stroke:none;stroke-width:0.3102859px;stroke-linecap:butt;stroke-linejoin:miter;stroke-opacity:1;enable-background:new" />
    <path
       inkscape:connector-curvature="0"
       id="path916"
       d="m 57.136047,247.23377 c 0,0 3.657868,0.41914 4.077001,0.91447 0.419127,0.49534 1.562214,1.98135 0.990671,2.7434 -0.571544,0.76205 -1.676527,0.53344 -2.552887,-0.34292 -0.876366,-0.87637 -2.590998,-3.16254 -2.590998,-3.16254 z"
       style="display:inline;opacity:1;fill:#dbac98;fill-opacity:1;stroke:none;stroke-width:0.3102859px;stroke-linecap:butt;stroke-linejoin:miter;stroke-opacity:1;enable-background:new" />
    <path
       inkscape:connector-curvature="0"
       id="path920"
       d="m 62.737162,252.75868 c -0.228622,-0.0382 -2.972025,-0.68585 -3.810285,-1.67653 -0.838265,-0.99067 -1.714625,-2.17185 -1.714625,-2.17185 -0.0021,-0.006 2.173142,1.43205 3.048224,2.28616 0.609643,0.19053 2.377029,0.32061 2.567546,0.43492 0.190518,0.1143 -0.319482,0.0223 -0.20517,0.47955 0.11431,0.45724 0.11431,0.64775 0.11431,0.64775 z"
       style="display:inline;opacity:1;fill:#c98276;fill-opacity:1;stroke:none;stroke-width:0.3102859px;stroke-linecap:butt;stroke-linejoin:miter;stroke-opacity:1;enable-background:new" />
    <path
       inkscape:connector-curvature="0"
       id="path947"
       d="m 60.8257,247.41562 -0.242486,-0.67356 v 0.70051 l -0.161655,0.0538 0.565793,-0.0538 z"
       style="display:inline;opacity:1;fill:#c8b7b7;stroke:none;stroke-width:0.3102859px;stroke-linecap:butt;stroke-linejoin:miter;stroke-opacity:1;enable-background:new" />
    <path
       inkscape:connector-curvature="0"
       id="path924"
       d="m 57.080658,236.66546 c -0.188604,0.21553 -0.862171,0.83521 -0.862171,1.6435 0,0.8083 -0.323312,0.96995 -0.08083,1.37409 0.242493,0.40414 1.131604,0.61968 1.239373,0.43108 0.10777,-0.1886 -0.808284,-0.59272 -0.808284,-1.02382 0,-0.43107 -0.215539,-0.80829 -0.08082,-1.21241 0.134717,-0.40415 0.592741,-1.21244 0.592741,-1.21244 z"
       style="display:inline;opacity:1;fill:#eac086;fill-opacity:1;stroke:none;stroke-width:0.3102859px;stroke-linecap:butt;stroke-linejoin:miter;stroke-opacity:1;enable-background:new" />
    <path
       inkscape:connector-curvature="0"
       id="path928"
       d="m 61.876471,240.54521 c -0.16166,-0.21552 -0.996887,-1.40102 -1.939883,-1.61656 -0.94299,-0.21554 -1.427963,-0.21554 -1.697397,0.0539 -0.269422,0.26944 -0.350249,0.67358 -0.02692,0.51191 0.323313,-0.16164 0.08082,-0.59273 1.023823,-0.26941 0.942996,0.3233 1.589615,0.80828 1.993762,1.05076 0.404138,0.24249 0.646632,0.26942 0.646632,0.26942 z"
       style="display:inline;opacity:1;fill:#eac086;fill-opacity:1;stroke:none;stroke-width:0.3102859px;stroke-linecap:butt;stroke-linejoin:miter;stroke-opacity:1;enable-background:new" />
    <path
       inkscape:connector-curvature="0"
       id="path930"
       d="m 62.307552,240.81466 c 0,0 -0.916054,0.1347 -1.427968,-0.13472 -0.511914,-0.26943 -0.754394,-0.75441 -1.212424,-0.59275 -0.458024,0.16166 -0.862164,0.21554 -1.158535,0.13471 -0.296369,-0.0808 -0.943002,-0.35025 -0.943002,-0.35025 0,0 0.484978,-0.027 0.592741,-0.29636 0.107776,-0.26944 0.5658,-0.53886 0.99688,-0.56581 0.431096,-0.027 0.619683,-0.027 1.131598,0.35025 0.511923,0.37721 0.458031,0.61969 0.916054,0.83524 0.458031,0.21554 1.104656,0.16165 1.131606,0.29637 0.02692,0.13471 -0.02692,0.32332 -0.02692,0.32332 z"
       style="display:inline;opacity:1;fill:#eac086;fill-opacity:1;stroke:none;stroke-width:0.3102859px;stroke-linecap:butt;stroke-linejoin:miter;stroke-opacity:1;enable-background:new" />
    <path
       inkscape:connector-curvature="0"
       id="path945"
       d="m 62.68475,247.76589 c 0,0 -4.768866,-0.35027 -5.577152,-0.67358 -0.808284,-0.32332 -0.781335,-0.83521 -0.781335,-0.83521 l 6.116,0.10779 z"
       style="display:inline;opacity:1;fill:#ffffff;stroke:none;stroke-width:0.3102859px;stroke-linecap:butt;stroke-linejoin:miter;stroke-opacity:1;enable-background:new" />
    <path
       inkscape:connector-curvature="0"
       id="path953"
       d="m 61.256788,229.06761 c 0,0 -0.215544,5.49633 -0.323313,7.22065 -0.107783,1.72435 -0.215544,2.37098 0.323313,2.37098 0.53885,0 0.969939,-0.43111 0.969939,-0.43111 0,0 0,-6.57402 -0.107777,-7.43619 -0.107767,-0.86217 -0.862162,-1.72433 -0.862162,-1.72433 z"
       style="display:inline;opacity:1;fill:none;stroke:none;stroke-width:0.3102859px;stroke-linecap:butt;stroke-linejoin:miter;stroke-opacity:1;enable-background:new" />
    <path
       inkscape:connector-curvature="0"
       id="path971"
       d="m 46.599916,282.57594 c 0,0 0.808287,9.42996 0.700525,10.56155 -0.107782,1.1316 -0.592748,3.55646 -0.592748,3.82588 0,0.26943 0.862169,0.3772 0.862169,0.3772 0,0 0.05384,-7.59787 0.215537,-9.21442 0.16166,-1.61658 -0.808279,-5.9813 -0.808279,-5.9813 z"
       style="display:inline;opacity:1;fill:#cccccc;stroke:none;stroke-width:0.3102859px;stroke-linecap:butt;stroke-linejoin:miter;stroke-opacity:1;enable-background:new" />
    <path
       inkscape:connector-curvature="0"
       id="path973"
       d="m 56.353206,290.06602 2.586502,4.58027 0.484972,0.3772 c 0,0 -1.347143,-2.47873 -1.454911,-2.90982 -0.107777,-0.43108 -1.077715,-2.69428 -1.077715,-2.69428 z"
       style="display:inline;opacity:1;fill:#9c9c9c;fill-opacity:1;stroke:none;stroke-width:0.3102859px;stroke-linecap:butt;stroke-linejoin:miter;stroke-opacity:1;enable-background:new" />
    <path
       inkscape:connector-curvature="0"
       id="path975"
       d="m 59.478558,291.52093 c 0.05384,0.43109 1.077713,4.58026 1.293257,5.01136 0.215537,0.43108 0.808279,0.70051 0.808279,0.70051 0,0 -1.724332,-4.31085 -1.724332,-4.68804 0,-0.37721 -0.377204,-1.02383 -0.377204,-1.02383 z"
       style="display:inline;opacity:1;fill:#cccccc;stroke:none;stroke-width:0.3102859px;stroke-linecap:butt;stroke-linejoin:miter;stroke-opacity:1;enable-background:new" />
    <path
       inkscape:connector-curvature="0"
       id="path977"
       d="m 59.963529,292.32922 c 0,0 1.778224,3.12535 1.993769,3.287 0.215544,0.16166 0.269429,0.64663 0.323313,0.43109 0.05384,-0.21553 0.808285,-0.16164 0.05384,-0.96993 -0.754409,-0.80829 -2.370973,-2.74816 -2.370973,-2.74816 z"
       style="display:inline;opacity:1;fill:#cccccc;stroke:none;stroke-width:0.3102859px;stroke-linecap:butt;stroke-linejoin:miter;stroke-opacity:1;enable-background:new" />
    <path
       inkscape:connector-curvature="0"
       id="path979"
       d="m 28.444618,274.32487 c 0,0 1.371705,2.43858 1.790831,4.76286 0.419133,2.32427 0.876366,4.077 1.143088,4.87716 0.266716,0.80015 1.333606,6.02025 1.333606,6.02025 0,0 0.533438,4.19131 0.647742,4.64855 0.114313,0.45721 0.190517,2.01944 0.190517,2.01944 0,0 -0.304821,-5.71542 -0.457239,-6.66799 -0.152403,-0.95258 -0.876366,-3.54356 -1.104975,-5.1439 -0.228617,-1.6003 -1.44791,-5.37249 -1.486016,-5.98214 -0.03809,-0.60964 -0.609644,-2.74339 -0.800161,-3.16253 -0.19051,-0.41912 -1.257393,-1.3717 -1.257393,-1.3717 z"
       style="display:inline;opacity:1;fill:#cccccc;stroke:none;stroke-width:0.3102859px;stroke-linecap:butt;stroke-linejoin:miter;stroke-opacity:1;enable-background:new" />
    <path
       inkscape:connector-curvature="0"
       id="path981"
       d="m 19.26184,276.87776 c 0,0 2.590992,2.59099 2.857715,2.93392 0.266715,0.34293 2.400474,2.40048 2.7815,2.78151 0.381035,0.38104 2.362383,2.47668 2.476687,2.74339 0.114312,0.26675 -0.685849,-1.98134 -1.066883,-2.59099 -0.38102,-0.60964 -4.038894,-4.95336 -4.038894,-4.95336 l 3.010125,4.30562 c 0,0 -4.267518,-3.96269 -4.496134,-4.19131 -0.228623,-0.22861 -1.524116,-1.02878 -1.524116,-1.02878 z"
       style="display:inline;opacity:1;fill:#cccccc;stroke:none;stroke-width:0.3102859px;stroke-linecap:butt;stroke-linejoin:miter;stroke-opacity:1;enable-background:new" />
    <path
       inkscape:connector-curvature="0"
       id="path983"
       d="m 19.711045,279.61222 c 0,0 -0.16166,1.34715 0.107776,2.42485 0.269428,1.07771 1.347142,3.12537 1.724332,4.41862 0.377205,1.29326 3.179251,7.27454 3.340904,7.8134 0.16166,0.53886 1.293257,2.90982 1.293257,2.90982 l 1.401027,0.0538 c 0,0 -1.401027,-2.10153 -2.101543,-3.34089 -0.70051,-1.23938 -1.939877,-4.04142 -2.317074,-5.33469 -0.377204,-1.29323 -1.454911,-3.12534 -1.670448,-3.77197 -0.215551,-0.64662 -1.023829,-2.31708 -1.185489,-2.69427 -0.161646,-0.37721 -0.592742,-2.47874 -0.592742,-2.47874 z"
       style="display:inline;opacity:1;fill:#cccccc;stroke:none;stroke-width:0.3102859px;stroke-linecap:butt;stroke-linejoin:miter;stroke-opacity:1;enable-background:new" />
    <path
       inkscape:connector-curvature="0"
       id="path985"
       d="m 16.370142,284.13862 c 0,0 -0.916054,4.63415 -0.484966,6.46625 0.431082,1.83211 1.508796,6.14295 1.508796,6.14295 l 1.185482,0.1078 c 0,0 -1.347142,-3.23312 -1.724339,-5.38856 -0.377197,-2.1554 -0.646633,-3.93363 -0.538857,-4.36472 0.107775,-0.43108 0.808278,-4.04142 0.808278,-4.04142 z"
       style="display:inline;opacity:1;fill:#cccccc;stroke:none;stroke-width:0.3102859px;stroke-linecap:butt;stroke-linejoin:miter;stroke-opacity:1;enable-background:new" />
    <path
       inkscape:connector-curvature="0"
       id="path1069"
       d="m 60.845002,192.94761 c 0,0 -6.002167,-0.96772 -7.842442,-0.19737 -1.840288,0.77036 -2.824631,1.84029 -2.824631,1.84029 l 3.509349,-0.47078 c 0,0 -1.198299,-0.72755 -5.478035,1.5835 -4.279728,2.31107 -6.505193,5.0501 -6.505193,5.0501 l 1.32673,-0.77036 c 0,0 -5.606453,5.00728 -6.205611,7.74631 -0.599174,2.73903 -0.941553,5.99163 -0.941553,5.99163 l 0.902821,-1.19363 c 0,0 -1.074016,4.01825 -0.68884,6.4149 0.385177,2.39666 0.641964,5.05008 0.641964,5.05008 l 0.385177,-3.89454 1.027138,8.73066 -0.336468,-5.07381 1.748778,5.28779 0.171192,-1.11273 0.258923,3.17869 0.768209,-1.21002 c 0,0 1.711899,5.43526 2.225466,7.14715 0.513573,1.7119 2.054277,5.0929 2.054277,5.0929 0,0 -1.369519,-6.93318 -1.198331,-8.55949 0.171185,-1.62628 0.427973,-3.59496 0.427973,-3.59496 l -0.684761,-7.96032 0.641957,1.54072 c 0,0 1.455126,-3.1242 1.968677,-4.49372 0.513575,-1.36951 -0.855938,4.15134 -0.855938,4.15134 0,0 5.520853,-4.53653 6.291204,-5.17849 0.770353,-0.64195 3.295394,-2.52503 3.295394,-2.52503 l -2.268261,4.15134 3.252597,-2.48224 -0.941533,3.1242 5.392462,-5.17847 -3.081403,5.34966 2.22545,-1.92587 -0.984342,2.09706 3.33821,-2.82462 z"
       style="display:inline;opacity:1;fill:#1a1a1a;stroke:none;stroke-width:0.16946878px;stroke-linecap:butt;stroke-linejoin:miter;stroke-opacity:1;enable-background:new" />
    <path
       inkscape:connector-curvature="0"
       id="path1168"
       d="m 62.916675,246.09647 h 3.610332 l 2.586502,0.91606 -0.916053,0.91604 -5.657978,0.1078 v -1.77821 z"
       style="display:inline;opacity:1;fill:#cccccc;fill-opacity:1;stroke:none;stroke-width:0.3102859px;stroke-linecap:butt;stroke-linejoin:miter;stroke-opacity:1;enable-background:new" />
    <path
       inkscape:connector-curvature="0"
       id="path2802"
       d="m 62.684749,247.76589 3.811964,-0.37056 0.09272,-0.55633 0.417253,0.57952 1.576278,-0.0927 0.530543,-0.31326 -2.586501,-0.91606 h -3.610332 l -1.218343,0.13984 -0.324529,0.37088 z"
       style="fill:#ffffff;fill-opacity:1;stroke:none;stroke-width:0.18358085px;stroke-linecap:butt;stroke-linejoin:miter;stroke-opacity:1" />
    <path
       inkscape:connector-curvature="0"
       id="path1374"
       d="m 65.28764,203.68856 c -0.05384,0.21555 -1.185483,12.39366 -1.185483,12.66311 0,0.26942 -2.85593,5.87352 -2.85593,5.87352 l 0.215538,-2.74817 -3.071469,2.04764 1.993754,-3.39478 -2.209304,1.29325 0.700516,-2.2093 -7.813398,5.11912 2.586503,-3.07147 -6.250726,5.11912 0.754402,-2.64038 c 0,0 -2.561149,2.21272 -2.713567,5.56577 -0.152411,3.35305 -0.152411,7.62056 -0.152411,7.62056 l -1.371698,-2.59099 0.762055,3.81029 c 0,0 -4.343723,-12.49773 -4.343723,-13.25978 0,-0.76207 2.209971,-4.95337 3.505464,-7.84919 1.295492,-2.89581 4.572338,-3.9627 9.449492,-6.70609 4.877169,-2.7434 11.999985,-4.64223 11.999985,-4.64223 z"
       style="display:inline;opacity:1;fill:#1a1a1a;fill-opacity:1;stroke:none;stroke-width:0.3102859px;stroke-linecap:butt;stroke-linejoin:miter;stroke-opacity:1;enable-background:new" />
    <path
       inkscape:connector-curvature="0"
       id="path2808"
       d="m 62.307553,240.81466 c 0,0 4.162673,-0.8786 4.162673,-1.02612 0,-0.14752 -0.491735,-1.06543 -0.491735,-1.06543 l 2.229196,0.44257 0.262258,-1.18017 -2.934015,-0.90151 -2.098066,1.72107 z"
       style="fill:#666666;fill-opacity:1;stroke:none;stroke-width:0.18358085px;stroke-linecap:butt;stroke-linejoin:miter;stroke-opacity:1" />
    <path
       inkscape:connector-curvature="0"
       id="path1525"
       d="m 60.37594,190.81012 c 0,0 14.476797,-0.47856 18.903579,2.15357 4.426793,2.63215 7.657141,6.93929 7.657141,6.93929 0,0 -5.503565,-1.675 -5.024997,-1.31607 0.478568,0.35893 4.785723,3.70893 7.776788,10.52857 2.991069,6.81964 -0.837504,16.51071 -0.837504,16.51071 l -0.598215,-5.50357 c 0,0 -1.914281,8.85357 -2.033921,8.01608 -0.119655,-0.8375 -0.598223,-5.14464 -0.598223,-5.14464 l -3.230357,19.14285 -1.196432,-5.8625 -1.435705,3.46964 1.914275,-15.43392 -1.674993,4.18749 V 216.4137 l -1.316079,1.19642 0.239294,-5.025 -7.417861,1.55536 2.392855,-2.15357 -7.776775,5.38393 0.239279,-3.23036 -4.666071,8.49464 0.239289,-4.54642 -0.358936,2.15357 -0.598209,-9.57143 z"
       style="fill:#1a1a1a;fill-opacity:1;stroke:none;stroke-width:0.34446627px;stroke-linecap:butt;stroke-linejoin:miter;stroke-opacity:1;enable-background:new" />
    <path
       inkscape:connector-curvature="0"
       id="path1528"
       d="m 60.192195,190.78301 c 0,0 -4.991411,0.3384 -7.106414,1.6074 -2.115019,1.26901 -4.145421,3.38402 -4.145421,3.38402 l 2.791811,-1.43821 c 0,0 0,4.14542 0.507607,3.89161 0.507599,-0.2538 10.659628,-2.8764 10.23663,-3.72241 -0.423005,-0.846 -2.284213,-3.72241 -2.284213,-3.72241 z"
       style="fill:#1a1a1a;fill-opacity:1;stroke:none;stroke-width:0.34446627px;stroke-linecap:butt;stroke-linejoin:miter;stroke-opacity:1;enable-background:new" />
    <path
       inkscape:connector-curvature="0"
       id="path1921"
       d="m 115.74737,275.55753 -0.89031,4.74834 c 0,0 0.74193,-1.59515 0.74193,-1.96612 0,-0.37096 0.18548,-2.59674 0.18548,-2.59674 z"
       style="fill:#b3b3b3;fill-opacity:1;stroke:none;stroke-width:0.18358085px;stroke-linecap:butt;stroke-linejoin:miter;stroke-opacity:1;enable-background:new" />
    <path
       inkscape:connector-curvature="0"
       id="path1929"
       d="m 61.803707,228.96741 c 0,0 -0.629543,4.09205 -0.629543,4.98391 0,0.89186 -0.682005,2.62311 -0.367233,3.09527 0.314771,0.47216 1.46894,0.73447 1.46894,0.73447 v -7.65948 z"
       style="fill:#ffeed5;fill-opacity:1;stroke:none;stroke-width:0.18358085px;stroke-linecap:butt;stroke-linejoin:miter;stroke-opacity:1;enable-background:new" />
    <path
       inkscape:connector-curvature="0"
       id="path1931"
       d="m 58.210049,239.25 c 0,0 1.154169,-0.28854 1.259093,-0.26231 0.104924,0.0262 1.311555,0.70824 1.259093,0.81316 -0.05246,0.10493 -0.708241,-0.0262 -1.259093,-0.13116 -0.550855,-0.10492 -0.970549,0.23609 -1.154162,0.0787 C 58.131359,239.59101 58.210049,239.25 58.210049,239.25 Z"
       style="fill:#d38d5f;fill-opacity:1;stroke:none;stroke-width:0.18358085px;stroke-linecap:butt;stroke-linejoin:miter;stroke-opacity:1;enable-background:new" />
    <path
       inkscape:connector-curvature="0"
       id="path2806"
       d="m 63.978772,239.44432 0.901512,-0.5573 0.928058,0.5126 -0.25602,0.47087 -0.803166,0.21309 -0.458952,-0.18031 z"
       style="fill:#333333;fill-opacity:1;stroke:none;stroke-width:0.18358085px;stroke-linecap:butt;stroke-linejoin:miter;stroke-opacity:1" />
    <text
       xml:space="preserve"
       style="font-style:normal;font-variant:normal;font-weight:normal;font-stretch:normal;font-size:4.83019447px;line-height:1.25;font-family:'Open Sans';-inkscape-font-specification:'Open Sans';letter-spacing:0px;word-spacing:0px;fill:#e6e6e6;fill-opacity:1;stroke:none;stroke-width:0.07547179"
       x="69.123299"
       y="229.13544"
       id="text914"><tspan
         id="tspan912"
         x="69.123299"
         y="229.13544"
         style="font-style:normal;font-variant:normal;font-weight:bold;font-stretch:normal;font-family:Iosevka;-inkscape-font-specification:'Iosevka Bold';fill:#e6e6e6;fill-opacity:1;stroke-width:0.07547179">&lt;/&gt;</tspan></text>
  </g>
</svg>
