<?xml version="1.0" encoding="UTF-8" standalone="no"?>
<!-- Created with Inkscape (http://www.inkscape.org/) -->

<svg
   xmlns:dc="http://purl.org/dc/elements/1.1/"
   xmlns:cc="http://creativecommons.org/ns#"
   xmlns:rdf="http://www.w3.org/1999/02/22-rdf-syntax-ns#"
   xmlns:svg="http://www.w3.org/2000/svg"
   xmlns="http://www.w3.org/2000/svg"
   xmlns:xlink="http://www.w3.org/1999/xlink"
   xmlns:sodipodi="http://sodipodi.sourceforge.net/DTD/sodipodi-0.dtd"
   xmlns:inkscape="http://www.inkscape.org/namespaces/inkscape"
   width="128"
   height="128"
   viewBox="0 0 33.866666 33.866668"
   version="1.1"
   id="svg8"
   inkscape:version="0.92.4 (5da689c313, 2019-01-14)"
   sodipodi:docname="fimas-logo.svg">
  <defs
     id="defs2">
    <linearGradient
       inkscape:collect="always"
       id="linearGradient5106">
      <stop
         style="stop-color:#e8eff5;stop-opacity:1"
         offset="0"
         id="stop5102" />
      <stop
         style="stop-color:#00365f;stop-opacity:1"
         offset="1"
         id="stop5104" />
    </linearGradient>
    <linearGradient
       inkscape:collect="always"
       id="linearGradient4787">
      <stop
         style="stop-color:#004e89;stop-opacity:1;"
         offset="0"
         id="stop4783" />
      <stop
         style="stop-color:#002f53;stop-opacity:1"
         offset="1"
         id="stop4785" />
    </linearGradient>
    <linearGradient
       inkscape:collect="always"
       xlink:href="#linearGradient4787"
       id="linearGradient4789"
       x1="1.9956584"
       y1="293.83664"
       x2="11.133062"
       y2="286.30786"
       gradientUnits="userSpaceOnUse"
       gradientTransform="matrix(2.4183495,0.71487052,-0.71487052,2.4183495,208.63836,-426.55421)" />
    <linearGradient
       inkscape:collect="always"
       xlink:href="#linearGradient5106"
       id="linearGradient5110"
       gradientUnits="userSpaceOnUse"
       x1="-8.3299389"
       y1="44.947807"
       x2="46.972095"
       y2="14.265854"
       gradientTransform="matrix(0.63985497,0.18914283,-0.18914283,0.63985497,4.8847221,259.43845)" />
    <filter
       inkscape:collect="always"
       style="color-interpolation-filters:sRGB"
       id="filter5156"
       x="-0.02311928"
       width="1.0462385"
       y="-0.018253081"
       height="1.0365062">
      <feGaussianBlur
         inkscape:collect="always"
         stdDeviation="0.094784876"
         id="feGaussianBlur5158" />
    </filter>
  </defs>
  <sodipodi:namedview
     id="base"
     pagecolor="#ffffff"
     bordercolor="#666666"
     borderopacity="1.0"
     inkscape:pageopacity="0.0"
     inkscape:pageshadow="2"
     inkscape:zoom="2.8"
     inkscape:cx="26.172022"
     inkscape:cy="57.242141"
     inkscape:document-units="px"
     inkscape:current-layer="layer1"
     showgrid="false"
     units="px"
     inkscape:window-width="1366"
     inkscape:window-height="693"
     inkscape:window-x="0"
     inkscape:window-y="26"
     inkscape:window-maximized="1"
     inkscape:snap-global="false" />
  <metadata
     id="metadata5">
    <rdf:RDF>
      <cc:Work
         rdf:about="">
        <dc:format>image/svg+xml</dc:format>
        <dc:type
           rdf:resource="http://purl.org/dc/dcmitype/StillImage" />
        <dc:title></dc:title>
      </cc:Work>
    </rdf:RDF>
  </metadata>
  <g
     inkscape:label="Layer 1"
     inkscape:groupmode="layer"
     id="layer1"
     transform="translate(0,-263.13332)">
    <path
       style="opacity:1;vector-effect:none;fill:url(#linearGradient5110);fill-opacity:1;fill-rule:nonzero;stroke:none;stroke-width:0.68734848;stroke-linecap:butt;stroke-linejoin:miter;stroke-miterlimit:4;stroke-dasharray:none;stroke-dashoffset:0;stroke-opacity:1;paint-order:markers stroke fill"
       d="m 11.289843,296.08481 c 0.575083,0.14803 1.153011,0.28693 1.741642,0.36942 0.50853,-0.63623 0.84427,-1.25815 1.042077,-1.87029 0.197808,-0.61217 0.257434,-1.21485 0.211627,-1.81005 -0.04581,-0.59516 -0.196748,-1.18287 -0.419056,-1.76815 -0.222309,-0.58529 -0.515175,-1.16812 -0.846876,-1.75058 -0.663404,-1.16492 -1.478357,-2.33092 -2.176671,-3.52706 -0.349157,-0.59807 -0.669575,-1.20393 -0.9267947,-1.82041 -0.25722,-0.6165 -0.4519233,-1.24373 -0.5500955,-1.88572 -0.049288,-0.46482 -0.00807,-0.86619 0.1107975,-1.21609 0.118875,-0.3499 0.316005,-0.6479 0.5807547,-0.90732 0.529498,-0.51883 1.327926,-0.88162 2.307174,-1.18514 1.958496,-0.60707 4.638106,-0.97899 7.325654,-1.89768 0.671887,-0.22973 1.014329,-0.42421 1.093798,-0.59259 0.07947,-0.16846 -0.104466,-0.31069 -0.482436,-0.43206 -0.755942,-0.2426 -2.291723,-0.40536 -4.067548,-0.54602 -1.775827,-0.14072 -3.791079,-0.25851 -5.506958,-0.41163 -1.7158791,-0.15308 -3.1320147,-0.34176 -3.708116,-0.62188 -0.2880506,-0.13996 -0.3970605,-0.30145 -0.3595548,-0.47997 0.037504,-0.17855 0.2216003,-0.37383 0.5189028,-0.58314 0.5946072,-0.41867 1.6427871,-0.89179 2.882038,-1.38757 2.478503,-0.9916 5.720426,-2.07589 7.62112,-3.00754 0.267338,-0.13114 0.43396,-0.27798 0.512748,-0.43822 0.07879,-0.16013 0.07002,-0.33413 -0.01407,-0.51782 -0.168191,-0.36738 -0.636893,-0.77508 -1.302633,-1.20176 -1.137925,-0.72938 -2.957524,-1.4974 -4.736485,-2.2182 a 16.260277,16.680629 16.467819 0 0 -11.0899303,11.322 16.260277,16.680629 16.467819 0 0 10.2388913,20.38547 z"
       id="path5096"
       inkscape:connector-curvature="0" />
    <path
       inkscape:connector-curvature="0"
       id="path5112"
       d="m 8.9495909,284.7671 a 6.0867941,6.2441465 16.467819 0 0 -3.4556216,0.0243 c 0.6659277,0.26983 1.3470679,0.55733 1.7730331,0.83035 0.2492099,0.15973 0.424661,0.31234 0.4876214,0.44987 0.03148,0.0687 0.034762,0.13386 0.00527,0.19384 -0.029494,0.06 -0.091866,0.11497 -0.1919398,0.16403 -0.7114965,0.34876 -1.9250627,0.75465 -2.8528533,1.12583 -0.4638954,0.18559 -0.8562659,0.3627 -1.0788484,0.51942 -0.1112912,0.0784 -0.180204,0.15146 -0.1942436,0.21829 -0.014041,0.0669 0.026767,0.12724 0.1345941,0.17967 0.2156549,0.1048 0.7457643,0.17547 1.3880783,0.23279 0.6423141,0.0573 1.3966938,0.10148 2.0614482,0.15409 0.6647538,0.0527 1.2396508,0.11354 1.5226263,0.20439 0.1414877,0.0455 0.2103409,0.0987 0.1805928,0.16174 -0.029748,0.0631 -0.1579358,0.13585 -0.4094468,0.22183 -1.0060441,0.34389 -2.0091161,0.48311 -2.7422504,0.71036 -0.366567,0.11362 -0.6654465,0.24943 -0.8636565,0.44364 -0.099105,0.0971 -0.1728973,0.20867 -0.2173968,0.33965 -0.044499,0.13097 -0.059926,0.28123 -0.041476,0.45522 0.036749,0.24032 0.1096337,0.47512 0.20592,0.70589 0.096287,0.23077 0.2162303,0.45756 0.3469322,0.68145 0.2614034,0.44776 0.5664692,0.88423 0.8148043,1.3203 0.1241675,0.21804 0.2337976,0.43621 0.3170155,0.6553 0.083218,0.21909 0.1397209,0.4391 0.1568676,0.66188 0.017147,0.2228 -0.00517,0.44842 -0.079219,0.67757 -0.074046,0.22914 -0.1997256,0.46196 -0.3900864,0.70012 -0.2203451,-0.0309 -0.4366842,-0.0829 -0.6519578,-0.13829 a 6.0867941,6.2441465 16.467819 0 0 0.2340533,0.0824 6.0867941,6.2441465 16.467819 0 0 7.6069724,-4.2626 6.0867941,6.2441465 16.467819 0 0 -4.0668315,-7.71341 z"
       style="opacity:1;vector-effect:none;fill:#1a1a1a;fill-opacity:0.28217821;fill-rule:nonzero;stroke:none;stroke-width:0.25729874;stroke-linecap:butt;stroke-linejoin:miter;stroke-miterlimit:4;stroke-dasharray:none;stroke-dashoffset:0;stroke-opacity:1;paint-order:markers stroke fill;filter:url(#filter5156)"
       transform="matrix(2.5217958,0,0,2.5217958,-0.54911131,-451.9841)" />
    <path
       style="opacity:1;vector-effect:none;fill:url(#linearGradient4789);fill-opacity:1;fill-rule:nonzero;stroke:none;stroke-width:0.68734848;stroke-linecap:butt;stroke-linejoin:miter;stroke-miterlimit:4;stroke-dasharray:none;stroke-dashoffset:0;stroke-opacity:1;paint-order:markers stroke fill"
       d="m 21.372235,264.31223 a 16.260277,16.680629 16.467819 0 0 -9.231356,0.0651 c 1.778961,0.7208 3.59856,1.48882 4.736485,2.2182 0.66574,0.42668 1.134441,0.83438 1.302633,1.20176 0.0841,0.18358 0.09286,0.35759 0.01407,0.51782 -0.07879,0.16014 -0.245411,0.30716 -0.512749,0.43822 -1.900694,0.93165 -5.142617,2.01594 -7.62112,3.00754 -1.2392507,0.49578 -2.2874306,0.9689 -2.8820377,1.38757 -0.2973036,0.20931 -0.4813977,0.40459 -0.5189029,0.58314 -0.037507,0.17854 0.071505,0.33991 0.3595549,0.47997 0.5761012,0.28012 1.9922368,0.46875 3.7081157,0.62188 1.71588,0.15307 3.731131,0.27099 5.506958,0.41163 1.775825,0.14071 3.311606,0.30329 4.067548,0.54602 0.37797,0.1213 0.561905,0.2637 0.482436,0.43206 -0.07947,0.16845 -0.42191,0.36291 -1.093797,0.59259 -2.687549,0.91869 -5.367158,1.29061 -7.325655,1.89768 -0.979248,0.30352 -1.777675,0.66631 -2.307174,1.18514 -0.2647497,0.25942 -0.4618787,0.55742 -0.5807547,0.90732 -0.1188771,0.3499 -0.1600858,0.75127 -0.1107973,1.21609 0.098173,0.64199 0.2928753,1.26922 0.5500953,1.88572 0.2572197,0.61648 0.5776377,1.22234 0.9267957,1.82041 0.698314,1.19614 1.513267,2.36214 2.17667,3.52706 0.331701,0.58246 0.624568,1.16529 0.846876,1.75058 0.222309,0.58528 0.373251,1.17298 0.419056,1.76815 0.04581,0.5952 -0.01382,1.19788 -0.211626,1.81005 -0.197807,0.61214 -0.533548,1.23406 -1.042078,1.87029 -0.58863,-0.0825 -1.166559,-0.22142 -1.741642,-0.36942 a 16.260277,16.680629 16.467819 0 0 0.625251,0.22015 16.260277,16.680629 16.467819 0 0 20.321286,-11.38712 16.260277,16.680629 16.467819 0 0 -10.864145,-20.60561 z"
       id="path4781"
       inkscape:connector-curvature="0" />
  </g>
</svg>
