<svg width="300" height="300" version="1.1" viewBox="0 0 79.375 79.375" xmlns="http://www.w3.org/2000/svg" xmlns:xlink="http://www.w3.org/1999/xlink">
 <g transform="translate(0 -217.62)">
  <text x="144.00893" y="164.89731" fill="#000000" font-family="Mali" font-size="12.7px" font-weight="bold" letter-spacing="0px" stroke-width=".26458" word-spacing="0px" style="line-height:1.25" xml:space="preserve"><tspan x="144.00893" y="176.74251" stroke-width=".26458"/></text>
  <path d="m23.983 287.39c-4.6169-4.0672-31.108 2.8889-14.021 8.5073 11.288 3.7118 9.9713-3.3653 28.169-0.99713s40.758 1.745 34.775-1.8696c-5.9828-3.6146-20.815-9.3481-30.662-8.6002-9.8466 0.74785-18.261 2.9596-18.261 2.9596z" fill="#1a1a1a"/>
  <path transform="matrix(.48203 0 0 .48203 -38.417 164.85)" d="m157.24 109.5c-5.5708 0.10929-11.104 1.3902-15.955 3.709a1.6596 1.6596 0 0 0-4e-3 2e-3c-7.3855 3.5433-13.021 9.5759-15.471 16.502a1.6596 1.6596 0 0 0-0.49414 0.78515s-4.266 14.339-0.66211 25.871c0.73941 2.3661 1.6472 4.1629 2.6387 5.5898 3.309 14.674 13.241 24.651 24.451 27.141-0.0765 0.23478-0.1456 0.47051-0.24414 0.72265-7.5979-0.8321-14.351-0.85905-20.127 0.0996a1.6596 1.6596 0 0 0-0.76757 0.34375l-15.373 12.361a1.6596 1.6596 0 0 0-0.61914 1.2422s9e-3 0.36132 0.0703 0.61914c0.061 0.25781 0.16713 0.56333 0.3418 0.91797 0.19333 0.39252 0.75991 1.01 1.1582 1.5312l-6.2539 7.2461a1.6596 1.6596 0 0 0-0.21484 1.8516l13.664 26.195c-0.38457 1.3668-0.43832 3.2241 1.1094 5.7676 1.0024 1.6473 2.0916 3.2372 3.1465 4.4961 0.52742 0.62942 1.0409 1.1775 1.582 1.625 0.0633 0.0524 0.16853 0.0622 0.23242 0.11328l-2.2383 8.3535a1.6596 1.6596 0 0 0 1.6035 2.0898h59.258a1.6596 1.6596 0 0 0 1.5254-2.3125l-5.1035-11.936c-0.6261-12.852-1.8732-25.575-1.6562-38.35l2.6699 2.7285a1.6596 1.6596 0 0 0 1.3106 0.49414s0.58287-0.10579 0.92773-0.15625l10.609 8.3105a1.6596 1.6596 0 0 0 2.3223-0.27343l12.951-16.281c1.1987-0.0285 2.5385-0.22835 4.0352-0.92578 2.0258-0.94398 4.3912-1.9396 6.2324-3.5918s3.0166-4.3364 2.1055-7.3867c-0.63253-2.1176-1.9825-3.5906-3.5606-4.2207-1.578-0.63013-3.206-0.50957-4.6328-0.18555-0.29235 0.0664-0.47225 0.19426-0.75195 0.27734 0.0535-0.21548 0.14256-0.40247 0.16211-0.64648 0.0442-0.5515-0.0299-1.32-0.60157-1.9531-0.57161-0.6331-1.4224-0.81962-2.1016-0.78906-0.67918 0.0306-1.3352 0.21618-2.1191 0.51953a1.6596 1.6596 0 0 0-0.60937 0.41016c-1.2457 1.323-2.4767 2.267-3.5996 3.5762s-2.0284 3.0275-2.3398 5.4024a1.6596 1.6596 0 0 0-8e-3 0.0703c-0.1188 1.3652 0.15735 2.5772 0.52734 3.6719l-6.7754 9.2344-1.6602-2.4375c0.75643-2.497 0.19336-4.6953 0.19336-4.6953a1.6596 1.6596 0 0 0-0.48633-0.78516l-13.459-12.119a1.6596 1.6596 0 0 0-0.88476-0.41211c-4.0623-0.55999-8.131-0.91619-12.225-0.87891-2.6656 0.0243-5.3479 0.32989-8.0371 0.74024-0.0731-0.2097-0.12026-0.40739-0.17578-0.60742 11.305-2.0786 21.206-9.9858 25.602-25.127 1.5993-2.7402 5.8367-10.93 7.4492-19.723 1.6237-8.8534-5.4744-15.341-6.1191-15.912-2.6623-6.3882-8.0879-11.875-15.01-15.195a1.6596 1.6596 0 0 0-2e-3 -2e-3c-5.3103-2.538-11.44-3.828-17.537-3.709zm-24.803 102.77c0.31867 8.8042-0.22607 17.26-0.94532 25.58-0.40629-0.28075-0.86942-0.32408-1.3027-0.47656l-8.3457-17.895 4.9062-4.1875c0.27454 0.14483 0.86523 0.47851 0.86523 0.47851a1.6596 1.6596 0 0 0 1.8926-0.32226s1.1177-1.1183 2.3926-2.5078c0.1972-0.21493 0.33645-0.44776 0.53711-0.66993z" fill="#1a1a1a" xlink:href="#path1108"/>
  <path d="m23.72 289.65s-13.163 0.13363-7.5504 2.3386c5.6127 2.205 6.4813 0.43431 13.898 1.3029 7.4167 0.86863 19.043 1.8375 23.252 0.90204 4.2095-0.93545 9.9558-2.2718 4.8109-3.8086s-5.4122-1.6036-10.958-1.6036c-5.5458 0-23.453 0.86863-23.453 0.86863z"/>
  <g>
   <path d="m25.23 285.8-1.5606 5.8241c-1.1257 1.4206 28.871 1.7075 28.564 0l-1.7168-6.0679c-0.54334 0.11811-25.286 0.2438-25.286 0.2438z" fill="#333"/>
   <path d="m34.925 253.26h5.005c-1.5316 1.6962-0.66872 3.27 0.12988 4.9238-1.4256 2.4674-3.3201 2.6958-5.2647-0.11364 0.60138-1.6229 1.7234-3.0216 0.12987-4.8102z" fill="#f2d7c2" style="paint-order:normal"/>
   <path d="m52.465 239.91c-1.5612 10.699-7.6764 15.263-14.602 15.612-6.8274 0.34363-13.7-5.8068-14.602-15.612-1.0223-11.111 2.9844-20.204 14.143-20.204 11.158 0 16.672 9.1624 15.061 20.204z" fill="#f4e3d7" style="paint-order:normal"/>
   <path d="m22.297 231.22a15.455 12.792 0 0 1 7.7275-11.078 15.455 12.792 0 0 1 15.455 0 15.455 12.792 0 0 1 7.7275 11.078h-15.455z" fill="#1a1a1a" style="paint-order:normal"/>
   <path d="m52.428 227.24s3.5173 3.0911 2.795 7.0294c-0.9307 5.0747-3.8715 10.005-3.769 9.6756 0 0-0.97405-3.117-2.2728-6.6885-1.2987-3.5715-0.64937-5.7144-0.64937-5.7144s-2.9871 4.156-7.208 4.2209c-4.2209 0.0649-11.234-2.3377-13.182 1.2338-1.9481 3.5715-0.97405 7.208-0.97405 7.208s-0.6808 0.21275-1.5718-0.0909c-1.0155-0.34608-2.3039-1.3629-3.1686-4.13-1.6234-5.1949 0.32468-12.013 0.32468-12.013z" fill="#1a1a1a"/>
   <path d="m34.083 239.45a2.5975 2.5975 0 0 1-1.2987 2.2495 2.5975 2.5975 0 0 1-2.5975 0 2.5975 2.5975 0 0 1-1.2987-2.2495h2.5975z" fill="#fff" style="paint-order:normal"/>
   <path d="m45.804 239.32a2.5975 2.5975 0 0 1-1.2987 2.2495 2.5975 2.5975 0 0 1-2.5975 0 2.5975 2.5975 0 0 1-1.2987-2.2495h2.5975z" fill="#fff" style="paint-order:normal"/>
   <path d="m33.434 239.45a1.9481 1.9481 0 0 1-0.97405 1.6871 1.9481 1.9481 0 0 1-1.9481 0 1.9481 1.9481 0 0 1-0.97405-1.6871h1.9481z" fill="#333" style="paint-order:normal"/>
   <path d="m45.155 239.32a1.9481 1.9481 0 0 1-0.97405 1.6871 1.9481 1.9481 0 0 1-1.9481 0 1.9481 1.9481 0 0 1-0.97405-1.6871h1.9481z" fill="#333" style="paint-order:normal"/>
   <path d="m25.034 257.18-9.8627 11.429 6.8575 13.145 1.7389-1.8063-4.4405-9.5207 7.9872-6.8184c-0.35731-2.2718-0.85496-4.4987-2.2805-6.4287z" fill="#f2d7c2"/>
   <path d="m44.045 256.77c-1.4949 0.0136-2.9901 0.13881-4.4906 0.41584 0.0694 2.8468-4.4959 2.4135-4.3834 0-3.9001-0.47747-7.2766-0.47494-10.138 0 2.2564 10.456 0.94424 19.673 0.19636 28.62a29.893 30.92 0 0 0 9.1183 2.5495h5.9257a29.893 30.92 0 0 0 9.4443-2.6073c-0.45211-9.4534-1.7383-18.868 0.10294-28.562-1.932-0.26634-3.8537-0.43334-5.7758-0.41584z" fill="#1a1a1a" style="paint-order:normal"/>
   <path d="m25.034 257.18-7.4111 5.9591s-0.03077 0.78318 2.1445 2.5365c2.1754 1.7533 3.6706 2.4558 3.6706 2.4558s2.6752-2.6745 2.8375-3.4538c0.16234-0.77924 0.0077-6.1391-0.61691-6.8184z" fill="#1a1a1a"/>
   <path d="m62.867 263.41s1.3179 0.91757 3.2921-2e-3c1.9742-0.91993 4.317-1.9065 3.5906-4.3384-1.0093-3.379-5.257-0.61011-5.257-0.61011s2.394-3.2683-0.246-2.2467c-1.2909 1.371-2.3874 1.859-2.6529 3.8833-0.1553 1.7846 1.2732 3.3143 1.2732 3.3143z" fill="#f2d7c2"/>
   <path d="m53.121 260.82 4.6398 6.8162 6.7318-9.1736 2.2449 2.0874-9.0549 11.382-9.0045-7.053c-1.1219-3.2916 3.3817-1.7364 4.4428-4.0589z" fill="#f2d7c2"/>
   <path d="m49.821 257.18 6.4873 5.8417s0.58443 2.078-1.1689 3.3767c-1.7533 1.2987-3.5715 1.4286-3.5715 1.4286l-2.8897-2.9546c-0.77677-0.17925-1.2742-5.62-0.06494-6.656z" fill="#1a1a1a"/>
   <path d="m22.029 281.24s-0.97778 0.73029 0.2386 2.7293c1.2164 1.999 2.7183 3.8242 3.026 2.6919 0.30774-1.1323-1.5008-5.0099-0.86212-4.0012 1.6981 2.6818 2.0937 0.76912 1.0932-1.528-1.6083-1.8675-2.3896-1.5624-3.4957 0.10801z" fill="#f2d7c2"/>
  </g>
  <path d="m35.701 255.42s0.18366 1.0676 2.4107 0.81502c0.66753-0.0757 0.97575-0.8265 0.97575-0.8265s-0.45917 0.12628-1.5382 0.14924c-1.0791 0.0229-1.8482-0.13776-1.8482-0.13776z" fill="#4d4d4d" fill-opacity=".078431"/>
  <path d="m457.08 147.29-5.6738 15.586h1.8418l5.6738-15.586zm-7.4082 2.8945-4.8984 4.8984 4.8984 4.8984 1.2246-1.2246-3.6758-3.6738 3.6738-3.6738zm10.984 0-1.2246 1.2246 3.6738 3.6738-3.6738 3.6738 1.2246 1.2246 4.8984-4.8984z" stroke-width=".86594" xlink:href="#path1196"/>
  <path d="m70.756 274.25a0.75985 0.75985 0 0 0-0.71484 0.5l-1.2285 3.373-0.40625-0.4082 0.73828-0.73828a0.75985 0.75985 0 0 0 2e-3 -1.0723l-0.42383-0.42578a0.75985 0.75985 0 0 0-1.0762-2e-3l-1.7012 1.7012a0.75985 0.75985 0 0 0 0 1.0742l1.7012 1.7012a0.75985 0.75985 0 0 0 0.42188 0.21289 0.75985 0.75985 0 0 0 0.7168 1.0156h0.64062a0.75985 0.75985 0 0 0 0.71484-0.5l1.2266-3.373 0.40625 0.40625-0.73828 0.74023a0.75985 0.75985 0 0 0 2e-3 1.0762l0.42578 0.42383a0.75985 0.75985 0 0 0 1.0723-2e-3l1.7012-1.7012a0.75985 0.75985 0 0 0 0-1.0742l-1.7012-1.7012a0.75985 0.75985 0 0 0-0.42383-0.21289 0.75985 0.75985 0 0 0-0.7168-1.0137z" fill="#1a1a1a" xlink:href="#path1196"/>
  <path id="path1196" d="m73.699 277.71-1.7012 1.7012-0.42522-0.42523 1.276-1.276-1.276-1.276 0.42522-0.42523zm-6.3669 0 1.276 1.276-0.42522 0.42523-1.7012-1.7012 1.7012-1.7012 0.42492 0.42523zm2.093 2.7065h-0.63994l1.9703-5.413h0.63994z" fill="#87de87"/>
  <path d="m63.262 241.05c-0.22612 1e-3 -0.45884 0.0535-0.66406 0.17188-0.40884 0.23601-0.62725 0.6712-0.70703 1.1309-0.05949 0.34271 0.0035 0.7446 0.06055 1.1445-0.37534 0.15074-0.7541 0.29833-1.0215 0.52148-0.35841 0.29913-0.62695 0.70537-0.62695 1.1777s0.26844 0.87901 0.62695 1.1777c0.26741 0.22282 0.64626 0.36918 1.0215 0.51953-0.05706 0.40015-0.12 0.80158-0.06055 1.1445 0.07974 0.45999 0.29783 0.89661 0.70703 1.1328 0.40888 0.23602 0.8942 0.20587 1.332 0.0449 0.32636-0.11998 0.64332-0.37363 0.96094-0.62305 0.31786 0.24945 0.63426 0.50312 0.96094 0.62305 0.43824 0.16089 0.92485 0.19124 1.334-0.0449 0.40947-0.23636 0.62588-0.67279 0.70508-1.1328 0.05904-0.34299-0.0032-0.74458-0.06055-1.1445 0.37509-0.15047 0.7541-0.29683 1.0215-0.51953 0.35848-0.29857 0.62695-0.70536 0.62695-1.1777s-0.26844-0.87901-0.62695-1.1777c-0.26741-0.22281-0.64626-0.36917-1.0215-0.51953 0.05722-0.39995 0.11954-0.8016 0.06055-1.1445-0.07913-0.45995-0.29565-0.89648-0.70508-1.1328-0.40912-0.23616-0.89573-0.20581-1.334-0.0449-0.32019 0.11754-0.62971 0.36907-0.94141 0.61133-0.5356-0.42964-1.0775-0.74082-1.6484-0.73829zm1.1953 1.0918c-1.6336-1.2167 1.6955 1.3217 0.08984 0.0684-1.6057-1.2534 1.6629 1.3597 0.08594 0.0703-1.5769-1.2893 1.6333 1.395 0.08594 0.0703-1.5474-1.3247 1.601 1.4336 0.08398 0.0742a0.48835 0.48835 0 0 0-0.48438-0.0976zm0.86524 0a0.48835 0.48835 0 0 0-0.14062 0.17383 0.48835 0.48835 0 0 0-0.18164 0.08984c0.24733-0.20828 1.1782-1.0169 0.06055-0.0527-1.5422 1.3305 1.658-1.3675 0.08594-0.0723-1.572 1.2952 1.6889-1.3295 0.08789-0.0703-1.601 1.2592 1.717-1.2909 0.08789-0.0684zm1.0273 0.55078c0.01117 0.0921 0.01148 0.22004 0 0.37891-0.07145-0.0112-0.13973-0.0256-0.21289-0.0352-0.04354-0.0568-0.08868-0.10739-0.13281-0.16211 0.1745-0.11053 0.2709-0.1565 0.3457-0.18164zm-2.916 2e-3c0.07489 0.0257 0.17007 0.0698 0.34375 0.17968-0.04368 0.0545-0.08779 0.10573-0.13086 0.16211-0.07194 9e-3 -0.14317 0.024-0.21484 0.0352-0.01102-0.15718-0.0092-0.28534 2e-3 -0.37695zm1.457 0.70703 0.06445 0.13086h-0.12695zm-0.0625 0.13281c0.52842-4e-3 1.0705-9.3e-4 0.05469 0-1.343 1e-3 -0.52367 7.4e-4 0.07227 2e-3l0.10547 0.2168c0.0609-0.0734 0.12206-0.14288 0.18359-0.21094-1.2601-0.0429 2.1394 0.10354 0.10938 4e-3 -2.1748-0.10674 2.2905 0.1417 0.11719 8e-3 -2.1733-0.13389 2.2887 0.16883 0.11719 8e-3l0.36914 0.21094c-1.2148-1.7864 1.2772 1.9552 0.0957 0.14649-1.1632-1.7807 1.1168 1.7783 0.09375 0.14453-0.02846 0.0887-0.05926 0.17545-0.0918 0.26367l0.24023-0.0176c0.18636 0.31277 0.43991 0.76208 0.0332 0.0566-1.079-1.8716 1.1301 2.0436 0.08594 0.15234-1.0441-1.8913 1.0928 2.0646 0.08398 0.1543-1.0089-1.9103 1.0533 2.083 0.08008 0.1543-0.97325-1.9287 1.0135 2.1046 0.07617 0.1582v0.42383c0.93895-1.9457-1.051 2.0842-0.07617 0.15625 0.96522-1.909-1.0229 1.9289-0.08203 0.15234 0.0094-0.0177-0.01 0.0208 0 2e-3 -0.08475 0.0182-0.17505 0.0343-0.27148 0.0508l0.13477 0.19922c-0.16974 0.30421-0.43083 0.74853-0.03125 0.0566 0.40492-0.70114 0.15098-0.25188-0.0332 0.0566l-0.23828-0.0176c0.03304 0.0891 0.06196 0.17652 0.08984 0.26172 1.0242-1.6331-1.2582 1.9245-0.09375 0.14453 1.1827-1.8079-1.3117 1.9322-0.0957 0.14648l-0.36719 0.21094c2.1545-0.16-2.3329 0.13177-0.17578 0.0117 2.1329-0.11871-2.1608 0.0807-0.17187 8e-3 -2.66e-4 -2.9e-4 -0.0017 3e-4 -2e-3 0-0.05787-0.0643-0.11643-0.13503-0.17969-0.21094l-0.10547 0.21876c-0.35036 5e-3 -0.86541 0-0.06445 0 0.77668 0 0.26274 5e-3 -0.0625 0l-0.10547-0.21876c-0.05942 0.0717-0.12028 0.14295-0.18164 0.21094 0.02421 9e-4 -0.02451-8.2e-4 -2e-3 0 1.9889 0.0728-2.3048-0.12652-0.17187-8e-3 2.1571 0.12005-2.3303-0.17172-0.17578-0.0117l-0.36719-0.21094c1.216 1.7857-1.2784-1.9544-0.0957-0.14648 1.1534 1.7631-1.0457-1.662-0.09375-0.14258 0.02847-0.0888 0.05926-0.17548 0.0918-0.26367l-0.24023 0.0176c-0.18418-0.30852-0.43812-0.75778-0.0332-0.0566 0.39958 0.69189 0.13848 0.24757-0.03125-0.0566l0.13477-0.19922c-0.09641-0.0166-0.18602-0.0326-0.27148-0.0508 0.01 0.0188-0.0094-0.0197 0-2e-3 0.9409 1.7766-1.0472-2.0613-0.08203-0.15234 0.97484 1.928-1.0151-2.102-0.07617-0.15625v-0.42383c-0.9373 1.9464 1.0494-2.0869 0.07617-0.1582-0.96354 1.9095 1.0188-1.9282 0.08008-0.15235 0.09049-0.0196 0.1817-0.039 0.27344-0.0547l-0.13477-0.19727c0.16952-0.30436 0.4303-0.7488 0.03125-0.0566-0.4067 0.70544-0.15316 0.25613 0.0332-0.0566l0.23828 0.0176c-0.03173-0.0856-0.06023-0.17439-0.08984-0.26563-0.95086 1.52 1.2459-1.9064 0.09375-0.14257-1.1815 1.8087 1.3105-1.9329 0.0957-0.14649l0.36914-0.21094c-4.3792 0.3242 4.4961-0.27905 0.11328-8e-3 -4.3828 0.27125 4.4991-0.22606 0.11328-8e-3 -4.3858 0.21825 4.5014-0.16914 0.11328-4e-3 -0.14858 6e-3 0.12307-5e-3 0.0039 0 0.06404 0.0707 0.12678 0.14032 0.18555 0.21094zm1.5898 0.12891c0.76198 0.14056 2.2844 0.42129 0.05469 0.01-3.3381-0.61611 3.413 0.66909 0.08203 0.0156-3.331-0.65347 3.4074 0.70832 0.08398 0.0176-3.3234-0.69074 3.3975 0.74552 0.08203 0.0176a0.48835 0.48835 0 0 0-0.16992-6e-3 0.48835 0.48835 0 0 0-2e-3 0 0.48835 0.48835 0 0 0-0.13086-0.0547zm0.91602 0.22265c-1.9376-0.62837 2.0284 0.70712 0.10547 0.0352-1.923-0.67197 2.0128 0.75427 0.10547 0.0391-1.9073-0.71521 1.9942 0.79716 0.10352 0.0391-1.8907-0.75809 1.9746 0.84357 0.10156 0.043a0.48835 0.48835 0 0 0-0.2207-0.0351 0.48835 0.48835 0 0 0-0.19531-0.1211zm-3.9961 0.41211 0.14453 0.0117-0.06445 0.10742zm1.5527 0.3125a0.58594 0.58594 0 0 0 0 1.1719 0.58594 0.58594 0 0 0 0-1.1719zm-2.5664 0.38281c0.02616 0.0675 0.04831 0.13633 0.07617 0.20313-0.02823 0.0677-0.05008 0.13397-0.07617 0.20117-0.15311-0.0741-0.27489-0.14334-0.34961-0.20117 0.0747-0.0582 0.19628-0.12882 0.34961-0.20313zm5.1348 2e-3c0.15186 0.0738 0.27352 0.14342 0.34766 0.20117-0.07447 0.0576-0.19556 0.12742-0.34766 0.20117-0.02605-0.0671-0.04799-0.1336-0.07617-0.20117 0.02822-0.0678 0.05012-0.13387 0.07617-0.20117zm-4.041 0.97851 0.06445 0.10938-0.14648 0.0117zm2.9727 0.041 0.05469 0.0801-0.10742-8e-3zm0.85938 0.66986c0.05017 0.28838 0.29646 1.5466 0.01758 0.0801-0.38051-2.0009 0.35437 2.1204 0.01953 0.11133-0.33484-2.009 0.30658 2.1255 0.01758 0.10937-0.289-2.0161 0.25669 2.1335 0.01367 0.11133a0.48835 0.48835 0 0 0-0.08008-0.21094 0.48835 0.48835 0 0 0 0.01172-0.20117zm-2.4199 0.17578h0.12305l-0.0625 0.12891zm-1.3984 0.45899c0.07167 0.0112 0.14291 0.0258 0.21484 0.0351 0.04335 0.0568 0.09001 0.11032 0.13477 0.16602-0.13996 0.095-0.26071 0.16555-0.34766 0.20117-0.01288-0.0932-0.0142-0.23367-2e-3 -0.40234zm2.918 0c0.01204 0.16793 0.01057 0.30915-2e-3 0.40234-0.08725-0.0357-0.20773-0.10628-0.34766-0.20117 0.04536-0.0563 0.0928-0.11059 0.13672-0.16797 0.073-0.01 0.14154-0.022 0.21289-0.0332z" fill="#1a1a1a" stroke-width="1.4757" xlink:href="#path1251"/>
  <circle cx="64.891" cy="245.22" r=".63783" fill="#1a1a1a" stroke="#1a1a1a" stroke-linecap="round" stroke-linejoin="bevel" stroke-width=".52917" style="paint-order:markers fill stroke"/>
  <path id="path1251" d="m63.263 241.54c-0.15472 6.8e-4 -0.29655 0.0353-0.42168 0.10748-0.50051 0.28892-0.61867 1.1095-0.39378 2.1399-1.005 0.32055-1.6562 0.83292-1.6562 1.4108s0.65125 1.091 1.6562 1.4108c-0.22489 1.0308-0.10678 1.851 0.39378 2.1399 0.50053 0.28893 1.2703-0.0184 2.05-0.72864 0.77971 0.71016 1.549 1.0176 2.0495 0.72864 0.50055-0.28893 0.61907-1.109 0.39377-2.1394h5.29e-4c1.005-0.32055 1.6557-0.83343 1.6557-1.4113s-0.65073-1.0905-1.6557-1.4102c0.2249-1.0308 0.10626-1.851-0.39429-2.1399-0.50054-0.28893-1.2698 0.0184-2.0495 0.72864-0.58478-0.53262-1.1642-0.8387-1.6283-0.83664zm0.02894 0.58394c0.19572 7e-3 0.50094 0.1322 0.87488 0.41186a4.4354 4.4354 0 0 1 0.30954 0.25528h5.29e-4c-0.19405 0.21162-0.38557 0.44628-0.57103 0.70125a8.0735 8.0735 0 0 0-0.89245 0.14366c-0.0289-0.13664-0.05053-0.26871-0.06615-0.39636-0.0734-0.61807 0.02971-0.99357 0.18707-1.0842 0.03933-0.0227 0.09237-0.0338 0.15761-0.0315zm3.1988 0c0.06524-2e-3 0.11828 9e-3 0.15762 0.0315 0.15724 0.0906 0.26077 0.46609 0.18655 1.0842-0.01495 0.12727-0.03745 0.26024-0.06666 0.39688-0.27995-0.0621-0.57879-0.11138-0.89193-0.14418-0.18537-0.25484-0.37706-0.48919-0.57102-0.70073a4.4354 4.4354 0 0 1 0.31006-0.2558c0.37396-0.27996 0.67968-0.40518 0.8754-0.41186zm-1.5994 1.0821c0.06906 0.0761 0.13735 0.15562 0.20567 0.23772a9.7157 9.7157 0 0 0-0.41186 0c0.06833-0.0824 0.13713-0.16162 0.20619-0.23772zm-0.23151 0.82373a8.9399 8.9399 0 0 1 0.89349 0.0212 8.9399 8.9399 0 0 1 0.66197 1.1472 8.9399 8.9399 0 0 1-0.66197 1.1472 8.9399 8.9399 0 0 1-1.3245 0 8.9399 8.9399 0 0 1-0.66198-1.1472 8.9399 8.9399 0 0 1 0.66198-1.1472 8.9399 8.9399 0 0 1 0.43098-0.0212zm-1.1855 0.11265a9.7157 9.7157 0 0 0-0.20619 0.35657c-0.03704-0.0999-0.07123-0.19903-0.10284-0.29662h5.29e-4c0.10034-0.0219 0.20314-0.0419 0.30851-0.0599zm2.8334 0a7.0178 7.0178 0 0 1 0.30851 0.0599c-0.03128 0.098-0.0653 0.19678-0.10232 0.29714a9.7157 9.7157 0 0 0-0.20619-0.35709zm-3.7088 0.21136a8.0735 8.0735 0 0 0 0.32246 0.84439c-0.12807 0.28776-0.23584 0.5711-0.32246 0.84439-0.13275-0.0429-0.2583-0.0899-0.3762-0.14056-0.57239-0.24518-0.84543-0.52227-0.84543-0.70383 0-0.18155 0.27342-0.45864 0.84543-0.70383 0.1179-0.0506 0.24339-0.0977 0.3762-0.14056zm4.5842 0a4.4354 4.4354 0 0 1 0.37621 0.14056c0.57239 0.24519 0.84542 0.52228 0.84542 0.70383 0 0.18156-0.27342 0.45865-0.84542 0.70383-0.11791 0.0507-0.2434 0.0977-0.37621 0.14056-0.08667-0.27369-0.19437-0.55663-0.32246-0.84439 0.12807-0.28775 0.23583-0.5711 0.32246-0.84439zm-2.2918 0.2589a0.58575 0.58575 0 1 0 0 1.1715 0.58575 0.58575 0 0 0 0-1.1715zm-1.6232 1.2847a9.7157 9.7157 0 0 0 0.20619 0.35657v5.3e-4c-0.10504-0.0181-0.20816-0.0382-0.30851-0.0599 0.03128-0.098 0.0653-0.19679 0.10232-0.29714zm3.2458 0c0.03704 0.0999 0.07123 0.19964 0.10284 0.29714h-5.3e-4c-0.10033 0.0219-0.20314 0.0414-0.30851 0.0594a9.7157 9.7157 0 0 0 0.20619-0.35657zm-3.5 0.863a8.0735 8.0735 0 0 0 0.89193 0.14418 8.0735 8.0735 0 0 0 0.57103 0.70073c-0.10386 0.0933-0.20735 0.1789-0.31006 0.2558-0.49859 0.37328-0.87516 0.47124-1.0325 0.38034-0.15724-0.0906-0.26129-0.46611-0.18707-1.0842 0.01487-0.12728 0.03745-0.26022 0.06666-0.39687zm3.7543 0h5.29e-4a4.4354 4.4354 0 0 1 0.06615 0.39687c0.0734 0.61808-0.02921 0.99358-0.18655 1.0842-0.15736 0.091-0.53441-7e-3 -1.033-0.38034-0.10268-0.0769-0.20617-0.16159-0.31006-0.25529a8.0735 8.0735 0 0 0 0.57102-0.70124c0.31314-0.0329 0.61198-0.0818 0.89194-0.14418zm-2.0831 0.19275a9.7153 9.7153 0 0 0 0.41186 0c-0.06832 0.0824-0.13661 0.16151-0.20567 0.23771-0.06906-0.0761-0.13786-0.15571-0.20619-0.23771z" fill="#2ad4ff" stroke-width=".39044"/>
  <path d="m14.467 243.87c-0.20543 0.0133-0.4059 0.0884-0.56836 0.21484l-1.1875 0.92383c-1.3275-0.10317-2.5773 0.71602-2.9316 2.0391-0.22901 0.85432 0.24839 0.69782-0.70703 1.418a0.75408 0.75408 0 0 0 0.064453 1.248c0.8538 0.51228 2.1379 0.94922 3.3359 0.94922 0.86313-3.9e-4 1.7173-0.41654 2.25-1.0957 0.43698-0.55718 0.58408-1.2791 0.5332-1.9844l0.93555-1.2051c0.3066-0.39425 0.26782-1.0146-0.08594-1.3672l-0.8418-0.83984c-0.20559-0.20619-0.50032-0.31749-0.79102-0.30078a0.75408 0.75408 0 0 0-0.0059 0z" fill="#1a1a1a" stroke-width=".26458" xlink:href="#path1333"/>
  <path id="path1333" d="m12.975 245.76 1.3862-1.078a0.28066 0.28066 0 0 1 0.37047 0.023l0.84056 0.84029a0.28066 0.28066 0 0 1 0.02302 0.37075l-1.0777 1.3859a2.1063 2.1063 0 0 1-2.044 2.6079c-0.98286 0-2.2458-0.42155-2.9475-0.84254 1.117-0.84197 0.85517-1.35 0.98231-1.8243 0.29693-1.1086 1.3589-1.7561 2.4667-1.483z" fill="#ffe680" stroke-width=".28066"/>
  <path d="m5.9102 272.66c-0.48785 0.0349-0.90684 0.48747-0.90625 0.97657v1.2285a0.67082 0.67082 0 0 0 0.074219 0.30469 0.67082 0.67082 0 0 0-0.074219 0.30859v3.0664c-0.00255 0.51315 0.4634 0.98172 0.97656 0.98242h3.0703a0.67082 0.67082 0 0 0 0.30664-0.0742 0.67082 0.67082 0 0 0 0.30859 0.0742h1.2285c0.51316-7e-4 0.97912-0.46927 0.97656-0.98242v-3.0664a0.67082 0.67082 0 0 0-0.07422-0.30468 0.67082 0.67082 0 0 0 0.07422-0.3086v-1.2285c-6.87e-4 -0.5111-0.46547-0.97586-0.97656-0.97657h-4.8906c-0.022796-7.9e-4 -0.045564-7.9e-4 -0.068359 0a0.67082 0.67082 0 0 0-0.025391 0z" fill="#1a1a1a" stroke-width=".86594" xlink:href="#path1345"/>
  <path id="path1345" d="m9.6654 278.85v-3.3777h1.5353v3.0706a0.30706 0.30706 0 0 1-0.30706 0.30706zm-0.61413 0h-3.0706a0.30706 0.30706 0 0 1-0.30706-0.30706v-3.0706h3.3777zm2.1494-3.9918h-5.5271v-1.2282a0.30706 0.30706 0 0 1 0.30706-0.30706h4.913a0.30706 0.30706 0 0 1 0.30706 0.30706z" fill="#aa87de" stroke-width=".30706"/>
  <g fill="#b3b3b3">
   <path d="m62.043 251.99h-0.25483v-1.572h0.88708v0.2172h-0.63225v0.49139h0.59246v0.21827h-0.59246z"/>
   <path d="m63.539 250.78q0.07634 0 0.1258 0.0107l-0.02472 0.23548q-0.05376-0.0129-0.11182-0.0129-0.15161 0-0.24623 0.0989-0.09355 0.0989-0.09355 0.25698v0.62149h-0.25268v-1.1892h0.19784l0.03334 0.20967h0.01292q0.05914-0.10645 0.15376-0.16881 0.09569-0.0624 0.20537-0.0624z"/>
   <path d="m64.941 251.39q0 0.2914-0.14946 0.45483-0.14946 0.16345-0.41612 0.16345-0.16666 0-0.29462-0.0753-0.12796-0.0753-0.19677-0.21613-0.06882-0.14085-0.06882-0.32688 0-0.28923 0.14838-0.4516 0.14838-0.16236 0.41827-0.16236 0.25806 0 0.40859 0.16667 0.15054 0.16558 0.15054 0.44729zm-0.86558 0q0 0.41183 0.3043 0.41183 0.30106 0 0.30106-0.41183 0-0.40751-0.30322-0.40751-0.15913 0-0.23117 0.10537-0.07097 0.10538-0.07097 0.30214z"/>
   <path d="m66.279 251.99h-0.25376v-0.73117q0-0.13763-0.05591-0.20537-0.05484-0.0677-0.17527-0.0677-0.16021 0-0.2344 0.0946-0.0742 0.0946-0.0742 0.3172v0.59246h-0.25268v-1.1892h0.19785l0.03549 0.15591h0.01292q0.05376-0.0849 0.15269-0.13118 0.09892-0.0462 0.21935-0.0462 0.42795 0 0.42795 0.43547z"/>
   <path d="m67.073 251.8q0.09247 0 0.18494-0.0291v0.19033q-0.04192 0.0183-0.1086 0.0301-0.06559 0.0129-0.13656 0.0129-0.35913 0-0.35913-0.37849v-0.64085h-0.16236v-0.11182l0.17419-0.0925 0.08602-0.25161h0.15591v0.26451h0.3387v0.19139h-0.3387v0.63655q0 0.0914 0.04514 0.13548 0.04626 0.043 0.12043 0.043z"/>
   <path d="m68.014 252.01q-0.27741 0-0.4344-0.1613-0.15591-0.16235-0.15591-0.44622 0-0.29139 0.14516-0.45805 0.14516-0.16667 0.39892-0.16667 0.23548 0 0.37203 0.14301t0.13656 0.39354v0.13656h-0.79246q0.0054 0.17311 0.09354 0.26666 0.08817 0.0925 0.24838 0.0925 0.10538 0 0.19569-0.0194 0.0914-0.0204 0.1957-0.0667v0.20537q-0.09247 0.0441-0.1871 0.0624-0.09462 0.0183-0.21612 0.0183zm-0.04622-1.0408q-0.12043 0-0.19354 0.0763-0.07204 0.0763-0.08602 0.22257h0.53978q-0.0023-0.1473-0.07097-0.22257-0.06881-0.0763-0.18924-0.0763z"/>
   <path d="m69.81 251.99h-0.25376v-0.73117q0-0.13763-0.05591-0.20537-0.05484-0.0677-0.17527-0.0677-0.16021 0-0.2344 0.0946-0.07419 0.0946-0.07419 0.3172v0.59246h-0.25269v-1.1892h0.19785l0.03549 0.15591h0.01292q0.05376-0.0849 0.15269-0.13118 0.09892-0.0462 0.21935-0.0462 0.42795 0 0.42795 0.43547z"/>
   <path d="m70.562 252.01q-0.22258 0-0.3473-0.1613-0.12473-0.16128-0.12473-0.45267 0-0.29247 0.1258-0.45483 0.12688-0.16344 0.35053-0.16344 0.2344 0 0.35698 0.17312h0.01292q-0.01828-0.12796-0.01828-0.20215v-0.43332h0.25376v1.6731h-0.19784l-0.04407-0.15591h-0.01184q-0.1215 0.17742-0.3559 0.17742zm0.06774-0.2043q0.15591 0 0.22687-0.0871 0.07097-0.0882 0.07312-0.28494v-0.0355q0-0.22472-0.07312-0.31935-0.07311-0.0946-0.22903-0.0946-0.13333 0-0.20537 0.10859-0.07204 0.10753-0.07204 0.30752 0 0.19785 0.06989 0.30215 0.06989 0.10322 0.20968 0.10322z"/>
   <path d="m68.652 283.22q-0.2215 0-0.34838 0.15699-0.12688 0.15698-0.12688 0.43332 0 0.28925 0.1215 0.43763 0.12258 0.14838 0.35375 0.14838 0.1 0 0.19354-0.0193 0.09355-0.0204 0.19462-0.0516v0.22042q-0.18494 0.0699-0.41934 0.0699-0.34515 0-0.5301-0.20859-0.18494-0.20968-0.18494-0.59892 0-0.24515 0.08925-0.42902 0.09032-0.18387 0.26021-0.28172 0.16989-0.0978 0.39892-0.0978 0.24086 0 0.44515 0.10107l-0.09247 0.21398q-0.07957-0.0376-0.16882-0.0656-0.08817-0.029-0.18602-0.029z"/>
   <path d="m70.409 283.99q0 0.29139-0.14946 0.45483-0.14946 0.16343-0.41612 0.16343-0.16666 0-0.29462-0.0753-0.12795-0.0753-0.19677-0.21612-0.06882-0.14086-0.06882-0.32687 0-0.28925 0.14838-0.45161 0.14839-0.16236 0.41827-0.16236 0.25806 0 0.4086 0.16666 0.15053 0.16559 0.15053 0.44731zm-0.86558 0q0 0.41182 0.3043 0.41182 0.30107 0 0.30107-0.41182 0-0.40752-0.30322-0.40752-0.15914 0-0.23118 0.10537-0.07097 0.10538-0.07097 0.30215z"/>
   <path d="m71.102 284.61q-0.22257 0-0.3473-0.16128-0.12473-0.16129-0.12473-0.45268 0-0.29247 0.1258-0.45483 0.12688-0.16344 0.35053-0.16344 0.2344 0 0.35698 0.17311h0.01292q-0.01828-0.12795-0.01828-0.20214v-0.43333h0.25376v1.6731h-0.19785l-0.04407-0.15591h-0.01185q-0.1215 0.17741-0.35591 0.17741zm0.06774-0.20429q0.15591 0 0.22687-0.0871 0.07097-0.0882 0.07312-0.28494v-0.0355q0-0.22472-0.07312-0.31934-0.07311-0.0946-0.22902-0.0946-0.13333 0-0.20538 0.1086-0.07204 0.10753-0.07204 0.30752 0 0.19785 0.06989 0.30215 0.06989 0.10322 0.20968 0.10322z"/>
   <path d="m72.325 284.59h-0.25268v-1.1892h0.25268zm-0.26774-1.5043q0-0.0677 0.03656-0.1043 0.03764-0.0366 0.10645-0.0366 0.06666 0 0.10322 0.0366 0.03763 0.0366 0.03763 0.1043 0 0.0645-0.03763 0.10215-0.03656 0.0366-0.10322 0.0366-0.06882 0-0.10645-0.0366-0.03656-0.0376-0.03656-0.10215z"/>
   <path d="m73.734 284.59h-0.25376v-0.73117q0-0.13763-0.05591-0.20537-0.05484-0.0677-0.17527-0.0677-0.16021 0-0.2344 0.0946-0.07419 0.0946-0.07419 0.3172v0.59246h-0.25269v-1.1892h0.19785l0.03549 0.15592h0.01292q0.05377-0.085 0.15269-0.13119 0.09892-0.0462 0.21935-0.0462 0.42795 0 0.42795 0.43548z"/>
   <path d="m75.09 283.4v0.13871l-0.20322 0.0376q0.02798 0.0376 0.04622 0.0925 0.01828 0.0548 0.01828 0.11612 0 0.18387-0.12688 0.28925-0.12688 0.10537-0.34945 0.10537-0.05699 0-0.10323-9e-3 -0.08172 0.0505-0.08172 0.11827 0 0.0409 0.03763 0.0613 0.03871 0.0204 0.14086 0.0204h0.20752q0.19677 0 0.29892 0.0839 0.10215 0.0839 0.10215 0.24193 0 0.20215-0.16666 0.31182-0.16666 0.10968-0.48171 0.10968-0.243 0-0.37096-0.086-0.12796-0.086-0.12796-0.24516 0-0.10967 0.06882-0.18494 0.06989-0.0742 0.19462-0.10322-0.05053-0.0215-0.08387-0.0688-0.03227-0.0484-0.03227-0.10107 0-0.0667 0.03763-0.1129 0.03764-0.0463 0.11183-0.0914-0.09247-0.0398-0.15054-0.12903-0.05699-0.0903-0.05699-0.21075 0-0.19354 0.1215-0.29999 0.12258-0.10645 0.34838-0.10645 0.05054 0 0.10538 8e-3 0.05591 6e-3 0.08387 0.014zm-0.93439 1.3742q0 0.0817 0.07312 0.1258 0.07419 0.0441 0.20752 0.0441 0.20645 0 0.30752-0.0591 0.10107-0.0591 0.10107-0.15698 0-0.0774-0.05591-0.11076-0.05484-0.0323-0.20537-0.0323h-0.19139q-0.1086 0-0.17311 0.0505-0.06344 0.0516-0.06344 0.13871zm0.1086-0.98923q0 0.11183 0.05699 0.17204 0.05806 0.0602 0.16559 0.0602 0.21935 0 0.21935-0.23441 0-0.11612-0.05484-0.17849-0.05376-0.0634-0.16451-0.0634-0.10968 0-0.16666 0.0624-0.05591 0.0624-0.05591 0.18171z"/>
   <path d="m5.2177 283.25v-1.572h0.25698v1.3516h0.66558v0.22043z"/>
   <path d="m7.1306 283.25-0.050536-0.16559h-0.0086q-0.086019 0.1086-0.17311 0.14838-0.087095 0.0387-0.22365 0.0387-0.17527 0-0.27419-0.0946-0.097847-0.0946-0.097847-0.26774 0-0.18387 0.13656-0.27741 0.13656-0.0935 0.41612-0.10215l0.20537-6e-3v-0.0634q0-0.11397-0.053763-0.16988-0.052687-0.057-0.16451-0.057-0.091396 0-0.17527 0.0269-0.083869 0.0269-0.16129 0.0634l-0.081723-0.18112q0.096772-0.0505 0.21182-0.0763 0.11505-0.0269 0.2172-0.0269 0.22688 0 0.34193 0.0989 0.11613 0.0989 0.11613 0.31074v0.80106zm-0.37634-0.17205q0.13763 0 0.22043-0.0763 0.083869-0.0774 0.083869-0.21612v-0.10322l-0.15268 6e-3q-0.17849 6e-3 -0.26021 0.0602-0.080643 0.0527-0.080643 0.16236 0 0.0796 0.047311 0.12365 0.047311 0.043 0.14193 0.043z"/>
   <path d="m7.4833 282.06h0.27526l0.24193 0.67418q0.054837 0.14408 0.073116 0.27096h0.0086q0.00968-0.0591 0.035485-0.143 0.025808-0.0849 0.27311-0.80214h0.27311l-0.50859 1.3473q-0.13871 0.37097-0.46236 0.37097-0.083869 0-0.16344-0.0183v-0.2q0.056988 0.0129 0.1301 0.0129 0.18279 0 0.25698-0.21183l0.044084-0.11182z"/>
   <path d="m9.9015 282.65q0 0.2914-0.14946 0.45483-0.14946 0.16344-0.41612 0.16344-0.16666 0-0.29462-0.0753-0.12795-0.0753-0.19677-0.21612-0.068816-0.14086-0.068816-0.32688 0-0.28924 0.14838-0.4516 0.14838-0.16236 0.41827-0.16236 0.25806 0 0.40859 0.16666 0.15053 0.16559 0.15053 0.4473zm-0.86557 0q0 0.41183 0.30429 0.41183 0.30107 0 0.30107-0.41183 0-0.40752-0.30322-0.40752-0.15914 0-0.23118 0.10538-0.070966 0.10538-0.070966 0.30214z"/>
   <path d="m11.032 283.25-0.03548-0.15591h-0.0129q-0.05269 0.0828-0.15053 0.1301-0.09677 0.0473-0.2215 0.0473-0.21612 0-0.32257-0.10752-0.10645-0.10753-0.10645-0.3258v-0.77741h0.25483v0.73332q0 0.13656 0.05591 0.20537 0.05591 0.0677 0.17526 0.0677 0.15914 0 0.23333-0.0946 0.07527-0.0957 0.07527-0.31935v-0.59246h0.25376v1.1892z"/>
   <path d="m12.034 283.06q0.09247 0 0.18494-0.0291v0.19032q-0.04193 0.0183-0.1086 0.0301-0.06559 0.0129-0.13656 0.0129-0.35913 0-0.35913-0.37849v-0.64084h-0.16236v-0.11183l0.17419-0.0925 0.08602-0.25161h0.15591v0.26451h0.3387v0.1914h-0.3387v0.63654q0 0.0914 0.04516 0.13548 0.04623 0.043 0.12043 0.043z"/>
   <path d="m10.6 252.95q0 0.38924-0.21612 0.59569-0.21612 0.20537-0.62257 0.20537h-0.43978v-1.572h0.48601q0.37526 0 0.58386 0.20215 0.2086 0.20214 0.2086 0.5688zm-0.27096 9e-3q0-0.5645-0.52795-0.5645h-0.22258v1.1408h0.18279q0.56773 0 0.56773-0.57634z"/>
   <path d="m11.431 253.77q-0.27741 0-0.4344-0.16128-0.15591-0.16236-0.15591-0.44623 0-0.29139 0.14516-0.45805 0.14516-0.16667 0.39892-0.16667 0.23548 0 0.37204 0.14301t0.13656 0.39354v0.13656h-0.79246q0.0054 0.17311 0.09355 0.26666 0.08817 0.0925 0.24838 0.0925 0.10537 0 0.1957-0.0194 0.0914-0.0204 0.1957-0.0667v0.20537q-0.09247 0.0441-0.18709 0.0624-0.09462 0.0183-0.21612 0.0183zm-0.04623-1.0408q-0.12043 0-0.19354 0.0763-0.07204 0.0763-0.08602 0.22257h0.53977q-0.0021-0.1473-0.07097-0.22257-0.06882-0.0763-0.18924-0.0763z"/>
   <path d="m12.979 253.41q0 0.17419-0.12688 0.26774-0.12688 0.0925-0.36343 0.0925-0.23763 0-0.38171-0.072v-0.21827q0.20967 0.0968 0.39031 0.0968 0.23333 0 0.23333-0.14086 0-0.0451-0.02581-0.0753-0.02581-0.0301-0.08494-0.0624-0.05914-0.0323-0.16451-0.0731-0.20537-0.0796-0.27849-0.15913-0.07204-0.0796-0.07204-0.20645 0-0.15268 0.12258-0.23656 0.12365-0.0849 0.33548-0.0849 0.20967 0 0.39677 0.0849l-0.08172 0.19033q-0.19247-0.0796-0.32365-0.0796-0.2 0-0.2 0.11397 0 0.0559 0.05161 0.0946 0.05269 0.0387 0.22795 0.10644 0.14731 0.057 0.21397 0.1043 0.06667 0.0473 0.09892 0.10968 0.03226 0.0613 0.03226 0.1473z"/>
   <path d="m13.504 253.75h-0.25268v-1.1892h0.25268zm-0.26774-1.5043q0-0.0677 0.03656-0.1043 0.03763-0.0366 0.10645-0.0366 0.06667 0 0.10322 0.0366 0.03763 0.0366 0.03763 0.1043 0 0.0645-0.03763 0.10215-0.03656 0.0366-0.10322 0.0366-0.06882 0-0.10645-0.0366-0.03656-0.0376-0.03656-0.10215z"/>
   <path d="m14.87 252.56v0.1387l-0.20322 0.0376q0.02796 0.0376 0.04623 0.0925 0.01828 0.0548 0.01828 0.11613 0 0.18386-0.12688 0.28923-0.12688 0.10538-0.34946 0.10538-0.05699 0-0.10322-9e-3 -0.08172 0.0505-0.08172 0.11827 0 0.0409 0.03763 0.0613 0.03871 0.0204 0.14086 0.0204h0.20752q0.19677 0 0.29892 0.0839 0.10215 0.0839 0.10215 0.24193 0 0.20214-0.16666 0.31182-0.16666 0.10967-0.48171 0.10967-0.243 0-0.37096-0.086-0.12795-0.086-0.12795-0.24516 0-0.10967 0.06882-0.18494 0.06989-0.0742 0.19462-0.10323-0.05054-0.0215-0.08387-0.0688-0.03226-0.0484-0.03226-0.10108 0-0.0667 0.03763-0.1129t0.11182-0.0914q-0.09247-0.0398-0.15053-0.12903-0.05699-0.0903-0.05699-0.21075 0-0.19354 0.1215-0.29999 0.12258-0.10645 0.34838-0.10645 0.05054 0 0.10537 8e-3 0.05591 6e-3 0.08387 0.014zm-0.93439 1.3742q0 0.0817 0.07312 0.12581 0.07419 0.0441 0.20752 0.0441 0.20645 0 0.30752-0.0591t0.10107-0.15699q0-0.0774-0.05591-0.11075-0.05484-0.0323-0.20537-0.0323h-0.19139q-0.1086 0-0.17311 0.0505-0.06344 0.0516-0.06344 0.13872zm0.1086-0.98922q0 0.11182 0.05699 0.17204 0.05806 0.0602 0.16559 0.0602 0.21935 0 0.21935-0.2344 0-0.11613-0.05484-0.17849-0.05376-0.0635-0.16451-0.0635-0.10967 0-0.16666 0.0624-0.05591 0.0624-0.05591 0.18172z"/>
   <path d="m16.138 253.75h-0.25376v-0.73117q0-0.13763-0.05591-0.20537-0.05484-0.0677-0.17526-0.0677-0.16021 0-0.2344 0.0946-0.07419 0.0946-0.07419 0.3172v0.59246h-0.25268v-1.1892h0.19784l0.03548 0.15591h0.0129q0.05376-0.0849 0.15268-0.13118 0.09892-0.0462 0.21935-0.0462 0.42795 0 0.42795 0.43547z"/>
  </g>
  <g>
   <path d="m41.417 248.41a3.9078 2.1874 0 0 1-1.9539 1.8943 3.9078 2.1874 0 0 1-3.9078 0 3.9078 2.1874 0 0 1-1.9539-1.8943h3.9078z" fill="#fff" style="paint-order:markers fill stroke"/>
   <path d="m40.392 248.41a2.8824 1.6536 0 0 1-1.4412 1.432 2.8824 1.6536 0 0 1-2.8824 0 2.8824 1.6536 0 0 1-1.4412-1.432h2.8824z" fill="#f55" style="paint-order:markers fill stroke"/>
   <path d="m31.773 238.17c-1.7336-0.0343-3.6465 0.83008-3.6465 0.83008a0.13247 0.13247 0 1 0 0.10742 0.24218s1.8945-0.83912 3.5352-0.80664c1.6344 0.0324 2.9102 1.0391 2.9102 1.0391a0.1323 0.1323 0 1 0 0.16406-0.20704s-1.3304-1.0632-3.0703-1.0976z" color="#000000" color-rendering="auto" dominant-baseline="auto" fill="#333" image-rendering="auto" shape-rendering="auto" solid-color="#000000" style="font-feature-settings:normal;font-variant-alternates:normal;font-variant-caps:normal;font-variant-ligatures:normal;font-variant-numeric:normal;font-variant-position:normal;isolation:auto;mix-blend-mode:normal;shape-padding:0;text-decoration-color:#000000;text-decoration-line:none;text-decoration-style:solid;text-indent:0;text-orientation:mixed;text-transform:none;white-space:normal"/>
   <path d="m43.057 238.17c1.7336-0.0343 3.6465 0.83008 3.6465 0.83008a0.13247 0.13247 0 1 1-0.10742 0.24218s-1.8945-0.83912-3.5352-0.80664c-1.6344 0.0324-2.9102 1.0391-2.9102 1.0391a0.1323 0.1323 0 1 1-0.16406-0.20704s1.3304-1.0632 3.0703-1.0976z" color="#000000" color-rendering="auto" dominant-baseline="auto" fill="#333" image-rendering="auto" shape-rendering="auto" solid-color="#000000" style="font-feature-settings:normal;font-variant-alternates:normal;font-variant-caps:normal;font-variant-ligatures:normal;font-variant-numeric:normal;font-variant-position:normal;isolation:auto;mix-blend-mode:normal;shape-padding:0;text-decoration-color:#000000;text-decoration-line:none;text-decoration-style:solid;text-indent:0;text-orientation:mixed;text-transform:none;white-space:normal"/>
  </g>
 </g>
</svg>
