<svg width="494" height="558" viewBox="0 0 494 558" fill="none" xmlns="http://www.w3.org/2000/svg">
<rect x="83" y="70" width="346" height="469" fill="#FFF0B4"/>
<rect width="346" height="469" fill="#FFDE5C"/>
<g clip-path="url(#clip0)">
<path d="M89.4469 480.754C89.4469 504.637 75.2531 512.977 57.7456 512.977C57.3379 512.977 56.9325 512.972 56.5293 512.961C55.7185 512.944 54.9143 512.908 54.1211 512.851C38.3189 511.734 26.042 502.964 26.042 480.754C26.042 457.771 55.399 428.768 57.6134 426.615L57.6178 426.613C57.7015 426.529 57.7456 426.487 57.7456 426.487C57.7456 426.487 89.4469 456.869 89.4469 480.754Z" fill="#3F3D56"/>
<path d="M56.589 509.322L68.185 493.116L56.5603 511.101L56.5295 512.961C55.7187 512.944 54.9144 512.908 54.1213 512.851L55.3705 488.957L55.3617 488.772L55.3837 488.737L55.5005 486.48L43.8472 468.449L55.5358 484.787L55.5644 485.266L56.5096 467.213L46.533 448.582L56.6308 464.041L57.6135 426.615L57.6179 426.487V426.613L57.4548 456.127L67.3852 444.425L57.413 458.668L57.1508 474.832L66.4246 459.32L57.1112 477.212L56.9658 486.198L70.428 464.605L56.9151 489.334L56.589 509.322Z" fill="#F2F2F2"/>
<g opacity="0.7">
<path opacity="0.7" d="M457.143 313.355V307.603H428.393V334.205C428.393 335.693 428.983 337.119 430.035 338.171C431.086 339.222 432.512 339.813 433.999 339.813H451.536C453.023 339.813 454.449 339.222 455.501 338.171C456.552 337.119 457.143 335.693 457.143 334.205V328.31C459.125 328.31 461.026 327.522 462.428 326.12C463.83 324.717 464.618 322.815 464.618 320.832C464.618 318.849 463.83 316.947 462.428 315.545C461.026 314.143 459.125 313.355 457.143 313.355V313.355ZM457.143 325.434V316.231C458.363 316.231 459.533 316.716 460.395 317.579C461.258 318.442 461.743 319.612 461.743 320.832C461.743 322.053 461.258 323.223 460.395 324.086C459.533 324.949 458.363 325.434 457.143 325.434V325.434Z" fill="url(#paint0_linear)"/>
</g>
<path d="M456.218 314.255C454.868 314.255 453.548 314.656 452.426 315.406C451.303 316.156 450.429 317.222 449.912 318.47C449.396 319.717 449.26 321.09 449.524 322.414C449.787 323.739 450.437 324.955 451.392 325.91C452.346 326.865 453.562 327.515 454.886 327.778C456.21 328.042 457.582 327.907 458.829 327.39C460.077 326.873 461.142 325.998 461.892 324.875C462.642 323.753 463.043 322.433 463.043 321.082C463.043 319.272 462.324 317.535 461.044 316.255C459.764 314.975 458.028 314.255 456.218 314.255V314.255ZM456.218 325.284C455.387 325.284 454.575 325.037 453.884 324.576C453.193 324.114 452.655 323.458 452.337 322.69C452.019 321.923 451.936 321.078 452.098 320.263C452.26 319.448 452.66 318.699 453.248 318.112C453.835 317.524 454.583 317.124 455.398 316.962C456.213 316.8 457.057 316.883 457.825 317.201C458.592 317.519 459.248 318.057 459.71 318.748C460.171 319.439 460.418 320.252 460.418 321.082C460.418 322.197 459.975 323.265 459.187 324.053C458.4 324.841 457.331 325.284 456.218 325.284Z" fill="#FFCC00"/>
<path opacity="0.1" d="M456.218 314.255C454.868 314.255 453.548 314.656 452.426 315.406C451.303 316.156 450.429 317.222 449.912 318.47C449.396 319.717 449.26 321.09 449.524 322.414C449.787 323.739 450.437 324.955 451.392 325.91C452.346 326.865 453.562 327.515 454.886 327.778C456.21 328.042 457.582 327.907 458.829 327.39C460.077 326.873 461.142 325.998 461.892 324.875C462.642 323.753 463.043 322.433 463.043 321.082C463.043 319.272 462.324 317.535 461.044 316.255C459.764 314.975 458.028 314.255 456.218 314.255V314.255ZM456.218 325.284C455.387 325.284 454.575 325.037 453.884 324.576C453.193 324.114 452.655 323.458 452.337 322.69C452.019 321.923 451.936 321.078 452.098 320.263C452.26 319.448 452.66 318.699 453.248 318.112C453.835 317.524 454.583 317.124 455.398 316.962C456.213 316.8 457.057 316.883 457.825 317.201C458.592 317.519 459.248 318.057 459.71 318.748C460.171 319.439 460.418 320.252 460.418 321.082C460.418 322.197 459.975 323.265 459.187 324.053C458.4 324.841 457.331 325.284 456.218 325.284Z" fill="black"/>
<path d="M429.968 309.004H456.218V333.266C456.218 334.631 455.675 335.94 454.71 336.905C453.745 337.87 452.437 338.413 451.072 338.413H435.113C433.748 338.413 432.44 337.87 431.475 336.905C430.51 335.94 429.968 334.631 429.968 333.266V309.004Z" fill="#FFCC00"/>
<path opacity="0.1" d="M451.492 309.004V333.292C451.492 334.65 450.953 335.953 449.993 336.913C449.033 337.873 447.731 338.413 446.374 338.413H448.999C450.356 338.413 451.658 337.873 452.618 336.913C453.578 335.953 454.117 334.65 454.117 333.292V309.004H451.492Z" fill="black"/>
<path d="M435.148 289.427C434.923 289.435 434.703 289.491 434.503 289.593C434.302 289.695 434.127 289.839 433.988 290.016C433.644 290.641 434.268 291.345 434.838 291.774C435.889 292.566 436.998 293.345 437.713 294.451C438.428 295.558 438.653 297.102 437.871 298.162C436.851 299.546 434.416 299.844 434.18 301.548C434.029 302.642 434.974 303.576 435.932 304.124C438.297 305.479 441.345 305.841 443.057 307.961C443.766 306.503 445.351 305.661 446.93 305.301C448.51 304.942 450.151 304.968 451.753 304.724C452.014 304.719 452.271 304.653 452.502 304.53C452.733 304.408 452.932 304.232 453.083 304.018C453.531 303.11 452.255 302.019 452.695 301.107C453.031 300.413 454.015 300.467 454.734 300.188C455.905 299.736 456.388 298.228 456.056 297.017C455.723 295.807 454.785 294.86 453.798 294.084C451.138 291.994 447.939 290.764 444.704 289.879C443.199 289.468 441.433 288.823 439.87 288.761C438.362 288.7 436.641 289.172 435.148 289.427Z" fill="#EEEEEE"/>
<path d="M250.907 344.614L196.021 515.661" stroke="#E0E0E0" stroke-width="8" stroke-miterlimit="10"/>
<g opacity="0.7">
<path opacity="0.7" d="M293.434 534.925C286.682 535.317 280.667 540.974 280.667 540.974L277.759 533.758L277.522 533.835C278.942 527.614 307.85 399.363 278.912 388.306C256.676 379.81 233.09 369.297 214.611 369.692V339.395H240.518V338.315H261.027C264.959 335.506 259.246 333.574 252.861 332.367C253.122 332.069 253.351 331.745 253.546 331.401L286.395 272.447C286.395 272.447 293.951 260.03 289.093 254.091C284.236 248.152 277.219 269.208 277.219 269.208L250.233 308.081C250.233 308.081 222.996 279.683 205.669 265.561C203.747 263.655 201.577 262.015 199.219 260.685C196.057 258.544 193.662 257.435 192.482 257.87C192.47 257.875 192.46 257.882 192.448 257.887C189.822 257.159 187.11 256.791 184.386 256.79H182.227V252.36C187.063 250.763 191.487 248.118 195.184 244.613C198.881 241.109 201.76 236.832 203.615 232.088C206.66 227.043 208.519 221.373 209.053 215.504C209.587 209.636 208.782 203.723 206.697 198.212C207.019 198.174 207.33 198.066 207.606 197.897C208.584 197.268 208.68 195.891 208.586 194.732C208.232 190.842 206.935 187.097 204.809 183.82C202.683 180.544 199.791 177.835 196.383 175.928C193.648 174.432 190.516 173.401 188.5 171.024C186.767 168.981 186.039 166.124 183.942 164.458C181.451 162.478 177.853 162.818 174.797 163.702C171.395 164.686 168.173 166.207 165.25 168.208C161.944 170.473 158.96 173.383 155.154 174.637C152.449 175.528 149.516 175.51 146.795 176.347C144.706 177.009 142.801 178.151 141.232 179.681C139.664 181.211 138.475 183.088 137.761 185.16C137.068 187.386 136.806 189.724 136.988 192.048C135.333 194.816 134.031 197.78 133.111 200.871C132.908 200.981 132.703 201.089 132.501 201.202L133.093 200.936C131.028 207.906 130.96 215.316 132.895 222.324C134.83 229.331 138.691 235.655 144.04 240.577C148.266 246.081 154.049 250.186 160.638 252.36V257.72C155.937 258.734 151.453 260.571 147.391 263.146L147.385 263.139C147.385 263.139 147.041 263.353 146.451 263.749C146.392 263.789 146.333 263.829 146.274 263.869C142.28 266.58 128.897 276.488 129.349 287.194C129.332 287.605 129.334 288.018 129.356 288.433C128.626 291.526 128.256 294.695 128.254 297.874V375.568C128.244 384.153 131.128 392.49 136.44 399.233C125.177 401.758 117.999 405.577 117.999 409.851C118.056 410.209 118.056 410.573 117.999 410.931C117.999 418.534 140.714 424.698 168.734 424.698C172.122 424.698 175.431 424.607 178.633 424.436L210.293 450.074L159.558 531.598C159.558 531.598 142.827 544.556 155.78 548.875C168.734 553.194 195.181 556.433 195.181 556.433C195.181 556.433 199.498 548.875 193.561 545.635C187.624 542.396 179.528 544.016 179.528 544.016L180.608 537.537C180.608 537.537 268.584 461.951 250.233 436.036C246.722 431.078 243.211 425.963 239.67 420.927L253.52 422.189L256.671 540.844L257.065 540.715C256.274 543.046 250.679 560.639 263.081 557.662C276.359 554.475 300.517 543.233 300.517 543.233C300.517 543.233 300.185 534.534 293.434 534.925ZM240.518 330.756L214.611 323.233V301.062L242.769 330.962C241.384 330.823 240.518 330.756 240.518 330.756Z" fill="url(#paint1_linear)"/>
</g>
<path d="M171.216 253.283C192.202 253.283 209.215 236.265 209.215 215.273C209.215 194.28 192.202 177.262 171.216 177.262C150.23 177.262 133.217 194.28 133.217 215.273C133.217 236.265 150.23 253.283 171.216 253.283Z" fill="black"/>
<path d="M214.492 302.38L243.491 333.173C244.102 333.822 244.857 334.317 245.694 334.619C246.532 334.921 247.429 335.021 248.313 334.911C249.197 334.801 250.042 334.485 250.781 333.987C251.519 333.489 252.13 332.824 252.564 332.046L284.684 274.4L275.712 271.233L249.324 309.243C249.324 309.243 199.785 257.593 192.854 260.146C185.923 262.7 214.492 302.38 214.492 302.38Z" fill="#FFCC00"/>
<path d="M159.078 409.021L116.329 519.884" stroke="#BDBDBD" stroke-width="5" stroke-miterlimit="10"/>
<path d="M180.188 409.021L222.936 519.884" stroke="#BDBDBD" stroke-width="5" stroke-miterlimit="10"/>
<path d="M169.633 423.274C197.031 423.274 219.242 417.247 219.242 409.812C219.242 402.378 197.031 396.35 169.633 396.35C142.234 396.35 120.023 402.378 120.023 409.812C120.023 417.247 142.234 423.274 169.633 423.274Z" fill="#B84733"/>
<path d="M169.633 422.219C197.031 422.219 219.242 416.191 219.242 408.757C219.242 401.322 197.031 395.295 169.633 395.295C142.234 395.295 120.023 401.322 120.023 408.757C120.023 416.191 142.234 422.219 169.633 422.219Z" fill="#F55F44"/>
<path d="M148.758 433.378L195.565 447.806" stroke="#BDBDBD" stroke-width="5" stroke-miterlimit="10"/>
<path d="M190.507 433.378L143.7 447.806" stroke="#BDBDBD" stroke-width="5" stroke-miterlimit="10"/>
<path d="M170.21 259.09H184.938C192.776 259.09 200.293 262.205 205.836 267.749C211.378 273.294 214.492 280.813 214.492 288.654V366.787H130.051V299.263C130.051 288.608 134.282 278.39 141.813 270.857C149.345 263.323 159.559 259.09 170.21 259.09V259.09Z" fill="#FFCC00"/>
<path d="M130.051 366.787H214.492V412.716H167.522C157.584 412.716 148.053 408.767 141.026 401.738C133.999 394.708 130.051 385.174 130.051 375.234V366.787V366.787Z" fill="#39447A"/>
<path opacity="0.05" d="M131.191 290.787L182.827 339.863H239.825V332.472L190.743 318.218L148.758 266.355C148.758 266.355 129.693 278.137 131.191 290.787Z" fill="black"/>
<path d="M131.191 289.731L182.827 338.807H239.825V331.416L190.743 317.162L148.758 265.299C148.758 265.299 129.693 277.081 131.191 289.731Z" fill="#FFCC00"/>
<path d="M239.825 331.416C239.825 331.416 267.268 333.528 259.88 338.807H239.825V331.416Z" fill="#FDA57D"/>
<path d="M275.712 271.233C275.712 271.233 282.573 250.644 287.323 256.451C292.073 262.258 284.684 274.4 284.684 274.4L275.712 271.233Z" fill="#FDA57D"/>
<path opacity="0.05" d="M130.051 366.787V369.251L214.492 369.426V366.787H130.051Z" fill="black"/>
<path d="M195.737 415.643L252.538 420.821L255.619 536.844L275.955 530.222C275.955 530.222 306.367 398.77 277.367 387.689C248.367 376.609 217.019 362.019 198.302 373.91C179.586 385.8 195.737 415.643 195.737 415.643Z" fill="#39447A"/>
<path opacity="0.1" d="M199.187 379.985C199.187 379.985 230.325 395.822 234.547 413.772Z" fill="black"/>
<path d="M165.939 412.188L210.27 448.087L160.661 527.803L181.243 533.61C181.243 533.61 267.268 459.701 249.324 434.361C231.38 409.021 213.437 379.457 191.271 378.929C169.105 378.401 165.939 412.188 165.939 412.188Z" fill="#39447A"/>
<path opacity="0.05" d="M235.603 295.517L246.685 314.522L249.324 309.243L235.603 295.517Z" fill="black"/>
<path d="M160.661 527.803C160.661 527.803 144.3 540.473 156.966 544.697C169.633 548.92 195.493 552.088 195.493 552.088C195.493 552.088 199.715 544.697 193.91 541.529C188.104 538.362 180.188 539.945 180.188 539.945L181.243 533.61L160.661 527.803Z" fill="#333333"/>
<path d="M256.091 536.469C256.091 536.469 248.905 556.405 261.888 553.289C274.87 550.172 298.493 539.18 298.493 539.18C298.493 539.18 298.168 530.674 291.567 531.057C284.965 531.439 279.084 536.972 279.084 536.972L276.24 529.915L256.091 536.469Z" fill="#333333"/>
<path d="M172.272 240.613H172.271C166.442 240.613 161.716 245.34 161.716 251.172V261.73C161.716 267.561 166.442 272.289 172.271 272.289H172.272C178.101 272.289 182.827 267.561 182.827 261.73V251.172C182.827 245.34 178.101 240.613 172.272 240.613Z" fill="#FDA57D"/>
<path opacity="0.05" d="M172.271 241.669C169.472 241.669 166.787 242.781 164.808 244.761C162.828 246.742 161.716 249.427 161.716 252.227V255.815C168.572 258.071 175.971 258.071 182.827 255.815V252.227C182.827 249.427 181.715 246.742 179.735 244.761C177.756 242.781 175.071 241.669 172.271 241.669Z" fill="black"/>
<path d="M172.271 256.451C190.926 256.451 206.048 241.324 206.048 222.664C206.048 204.004 190.926 188.877 172.271 188.877C153.617 188.877 138.495 204.004 138.495 222.664C138.495 241.324 153.617 256.451 172.271 256.451Z" fill="#FDA57D"/>
<path opacity="0.05" d="M138.495 221.131C138.495 221.131 146.939 223.307 151.689 213.707C156.439 204.107 160.133 198.871 179.66 204.543C199.187 210.216 203.115 210.908 204.054 205.544C204.695 201.878 197.752 192.975 193.29 187.703C191.113 185.132 187.561 183.598 183.765 183.598H161.716L148.522 189.707L138.495 198.434L136.384 210.216L138.495 221.131Z" fill="black"/>
<path d="M138.495 220.075C138.495 220.075 146.939 222.252 151.689 212.651C156.439 203.051 160.133 197.815 179.66 203.488C199.187 209.16 203.115 209.853 204.054 204.488C204.695 200.823 197.752 191.919 193.29 186.647C191.113 184.076 187.561 182.542 183.765 182.542H161.716L148.522 188.651L138.495 197.378L136.384 209.16L138.495 220.075Z" fill="black"/>
<path d="M141.925 226.887C143.82 226.887 145.356 223.815 145.356 220.024C145.356 216.234 143.82 213.161 141.925 213.161C140.031 213.161 138.495 216.234 138.495 220.024C138.495 223.815 140.031 226.887 141.925 226.887Z" fill="#FDA57D"/>
<path d="M81.0179 503.651H34.3021C24.7464 503.651 17 511.4 17 520.959V520.959C17 530.518 24.7464 538.266 34.3021 538.266H81.0179C90.5735 538.266 98.32 530.518 98.32 520.959C98.32 511.4 90.5735 503.651 81.0179 503.651Z" fill="#FFCC00"/>
<path d="M320.923 380.073C321.129 380.066 321.323 379.979 321.466 379.831C321.608 379.684 321.688 379.486 321.688 379.281C321.688 379.076 321.608 378.878 321.466 378.73C321.323 378.583 321.129 378.496 320.923 378.489C320.718 378.496 320.524 378.583 320.381 378.73C320.238 378.878 320.159 379.076 320.159 379.281C320.159 379.486 320.238 379.684 320.381 379.831C320.524 379.979 320.718 380.066 320.923 380.073Z" fill="url(#paint2_linear)"/>
<path d="M437.081 344.614L491.968 539.994" stroke="#E0E0E0" stroke-width="8" stroke-miterlimit="10"/>
<path d="M492.19 338.892H195.798V350.446H492.19V338.892Z" fill="#E0E0E0"/>
<path d="M313.975 336.167H272.282C270.387 336.167 268.851 337.704 268.851 339.599V339.599C268.851 341.494 270.387 343.03 272.282 343.03H313.975C315.869 343.03 317.405 341.494 317.405 339.599C317.405 337.704 315.869 336.167 313.975 336.167Z" fill="#535461"/>
<g opacity="0.7">
<path opacity="0.7" d="M404.19 259.651H313.299C305.074 259.651 298.406 266.32 298.406 274.548V328.218C298.406 336.446 305.074 343.116 313.299 343.116H404.19C412.415 343.116 419.083 336.446 419.083 328.218V274.548C419.083 266.32 412.415 259.651 404.19 259.651Z" fill="url(#paint3_linear)"/>
</g>
<path d="M400.712 261.19H314.72C306.898 261.19 300.557 267.533 300.557 275.357V328.949C300.557 336.773 306.898 343.116 314.72 343.116H400.712C408.534 343.116 414.874 336.773 414.874 328.949V275.357C414.874 267.533 408.534 261.19 400.712 261.19Z" fill="#3E3F49"/>
<path d="M402.295 261.19H316.303C308.481 261.19 302.141 267.533 302.141 275.357V328.949C302.141 336.773 308.481 343.116 316.303 343.116H402.295C410.117 343.116 416.458 336.773 416.458 328.949V275.357C416.458 267.533 410.117 261.19 402.295 261.19Z" fill="#535461"/>
<path d="M364.64 305.284C366.68 305.284 368.334 303.629 368.334 301.588C368.334 299.547 366.68 297.893 364.64 297.893C362.599 297.893 360.945 299.547 360.945 301.588C360.945 303.629 362.599 305.284 364.64 305.284Z" fill="#E0E0E0"/>
<path d="M160 209.5C150 209.1 151.833 200.667 154 196.5L202 200.5C203.333 206 205.2 217.9 202 221.5C198 226 188.5 220 181.5 213.5C174.5 207 172.5 210 160 209.5Z" fill="black"/>
</g>
<defs>
<linearGradient id="paint0_linear" x1="446.505" y1="339.813" x2="446.505" y2="307.603" gradientUnits="userSpaceOnUse">
<stop stop-color="#808080" stop-opacity="0.25"/>
<stop offset="0.53514" stop-color="#808080" stop-opacity="0.12"/>
<stop offset="1" stop-color="#808080" stop-opacity="0.1"/>
</linearGradient>
<linearGradient id="paint1_linear" x1="93949.3" y1="325686" x2="93949.3" y2="30140.5" gradientUnits="userSpaceOnUse">
<stop stop-color="#808080" stop-opacity="0.25"/>
<stop offset="0.53514" stop-color="#808080" stop-opacity="0.12"/>
<stop offset="1" stop-color="#808080" stop-opacity="0.1"/>
</linearGradient>
<linearGradient id="paint2_linear" x1="1430" y1="1149.9" x2="1430" y2="1145.15" gradientUnits="userSpaceOnUse">
<stop stop-color="#808080" stop-opacity="0.25"/>
<stop offset="0.53514" stop-color="#808080" stop-opacity="0.12"/>
<stop offset="1" stop-color="#808080" stop-opacity="0.1"/>
</linearGradient>
<linearGradient id="paint3_linear" x1="78441.5" y1="28736.2" x2="78441.5" y2="15540.2" gradientUnits="userSpaceOnUse">
<stop stop-color="#808080" stop-opacity="0.25"/>
<stop offset="0.53514" stop-color="#808080" stop-opacity="0.12"/>
<stop offset="1" stop-color="#808080" stop-opacity="0.1"/>
</linearGradient>
<clipPath id="clip0">
<rect width="477" height="395" fill="white" transform="translate(17 163)"/>
</clipPath>
</defs>
</svg>
