<svg width="48" height="48" viewBox="0 0 48 48" xmlns="http://www.w3.org/2000/svg">
<path d="M24 0C21.3306 0.00961377 18.6816 0.464482 16.1619 1.34588C15.1675 14.1432 27.5812 20.8937 33.2786 30.6731C33.4163 21.0796 43.9101 11.9364 33.2938 1.87538C30.3514 0.638465 27.1918 0.000901597 24 0V0ZM6.34781 7.78294C2.27606 12.2032 0.0108603 17.9902 0 24C0.00742227 30.0658 2.31146 35.9039 6.44869 40.3399C6.4122 29.5392 11.6448 19.6717 6.34781 7.78294ZM42.7601 9.03619C42.7723 9.05467 42.7852 9.07278 42.7972 9.09131C42.6308 19.2147 36.0035 30.386 42.3608 39.4515C42.3529 39.4618 42.3448 39.4716 42.3369 39.4819C45.9934 35.1518 47.9995 29.6674 48 24C47.9989 18.5625 46.1514 13.2865 42.7601 9.03619ZM15.2936 16.8178C14.5078 26.7118 6.08881 36.013 15.3617 46.3639C18.1158 47.4365 21.0444 47.9912 24 48C27.1105 47.9942 30.1903 47.3838 33.0679 46.2028C34.208 28.7995 21.2069 26.6251 15.2936 16.8178Z"/>
<defs>
<linearGradient id="paint0_linear" x1="0" y1="24" x2="48" y2="24" gradientUnits="userSpaceOnUse">
<stop stop-color="#FFCC00"/>
<stop offset="0.290637" stop-color="#FFCC00"/>
<stop offset="1" stop-color="#FFE680"/>
</linearGradient>
</defs>
</svg>
