<svg width="275" height="56" viewBox="0 0 275 56" fill="none" xmlns="http://www.w3.org/2000/svg">
<path d="M24 4C21.3306 4.00961 18.6816 4.46448 16.1619 5.34588C15.1675 18.1432 27.5812 24.8937 33.2786 34.6731C33.4163 25.0796 43.9101 15.9364 33.2938 5.87538C30.3514 4.63847 27.1918 4.0009 24 4V4ZM6.34781 11.7829C2.27606 16.2032 0.0108603 21.9902 0 28C0.00742227 34.0658 2.31146 39.9039 6.44869 44.3399C6.4122 33.5392 11.6448 23.6717 6.34781 11.7829ZM42.7601 13.0362C42.7723 13.0547 42.7852 13.0728 42.7972 13.0913C42.6308 23.2147 36.0035 34.386 42.3608 43.4515C42.3529 43.4618 42.3448 43.4716 42.3369 43.4819C45.9934 39.1518 47.9995 33.6674 48 28C47.9989 22.5625 46.1514 17.2865 42.7601 13.0362ZM15.2936 20.8178C14.5078 30.7118 6.08881 40.013 15.3617 50.3639C18.1158 51.4365 21.0444 51.9912 24 52C27.1105 51.9942 30.1903 51.3838 33.0679 50.2028C34.208 32.7995 21.2069 30.6251 15.2936 20.8178Z" fill="url(#paint0_linear)"/>
<path d="M75.0469 9.875H81.9609V33.2891C81.9609 37.2422 80.9062 40.0938 78.7969 41.8438C76.6875 43.5938 74 44.4688 70.7344 44.4688C67.4219 44.4688 64.7188 43.5938 62.625 41.8438C60.5312 40.0938 59.4844 37.2422 59.4844 33.2891V9.875H66.3984V33.2891C66.3984 35.5234 66.7656 36.9922 67.5 37.6953C68.25 38.3984 69.3281 38.75 70.7344 38.75C72.1562 38.75 73.2266 38.3984 73.9453 37.6953C74.6797 36.9922 75.0469 35.5234 75.0469 33.2891V9.875ZM107.456 44L102.323 31.5312H98.9016V44H91.9875V9.875H102.98C106.386 9.875 109.042 10.7578 110.948 12.5234C112.855 14.2734 113.808 16.8281 113.808 20.1875C113.808 22.6562 113.37 24.6484 112.495 26.1641C111.62 27.6797 110.409 28.8516 108.862 29.6797L114.862 43.6719V44H107.456ZM98.9016 15.6172V25.7891H102.792C104.167 25.7891 105.198 25.3359 105.886 24.4297C106.573 23.5078 106.917 22.2812 106.917 20.75C106.917 17.3906 105.652 15.6797 103.12 15.6172H98.9016ZM147.366 29.9844C147.366 34.7969 146.241 38.4141 143.991 40.8359C141.741 43.2578 138.78 44.4688 135.108 44.4688C131.452 44.4688 128.483 43.2578 126.202 40.8359C123.92 38.4141 122.78 34.7969 122.78 29.9844V24.3125C122.78 19.3906 123.912 15.6797 126.178 13.1797C128.444 10.6641 131.405 9.40625 135.061 9.40625C138.733 9.40625 141.702 10.6641 143.967 13.1797C146.233 15.6797 147.366 19.3906 147.366 24.3125V29.9844ZM140.475 24.2656C140.475 21.0156 140.014 18.6875 139.092 17.2812C138.17 15.875 136.827 15.1719 135.061 15.1719C133.311 15.1719 131.975 15.8672 131.053 17.2578C130.147 18.6328 129.686 20.9062 129.67 24.0781V29.9844C129.67 33.0781 130.131 35.3125 131.053 36.6875C131.991 38.0469 133.342 38.7266 135.108 38.7266C136.858 38.7266 138.186 38.0547 139.092 36.7109C139.998 35.3672 140.459 33.1797 140.475 30.1484V24.2656ZM157.111 44V9.875H176.002V15.6172H164.025V24.3594H174.713V30.0781H164.025V44H157.111ZM199.223 35.0234C199.223 33.8516 198.934 32.8906 198.356 32.1406C197.794 31.375 196.302 30.5 193.88 29.5156C191.458 28.5312 189.341 27.2812 187.528 25.7656C185.606 24.1562 184.645 21.8828 184.645 18.9453C184.645 16.0703 185.653 13.7656 187.669 12.0312C189.684 10.2812 192.278 9.40625 195.45 9.40625C198.716 9.40625 201.317 10.3906 203.255 12.3594C205.208 14.3281 206.184 16.8516 206.184 19.9297H199.294C199.294 18.5078 198.981 17.3359 198.356 16.4141C197.747 15.4922 196.739 15.0312 195.333 15.0312C194.036 15.0312 193.075 15.4141 192.45 16.1797C191.841 16.9453 191.536 17.875 191.536 18.9688C191.536 20.0781 191.997 21.0078 192.919 21.7578C193.856 22.5078 195.091 23.2188 196.622 23.8906C199.809 25.0312 202.192 26.4609 203.77 28.1797C205.348 29.8984 206.137 32.1641 206.137 34.9766C206.137 37.9766 205.192 40.3125 203.302 41.9844C201.411 43.6406 198.841 44.4688 195.591 44.4688C193.637 44.4688 191.755 44.0703 189.942 43.2734C188.145 42.4766 186.669 41.25 185.512 39.5938C184.356 37.9375 183.778 35.8125 183.778 33.2188H190.692C190.692 35.2812 191.098 36.7344 191.911 37.5781C192.739 38.4219 193.966 38.8438 195.591 38.8438C196.919 38.8438 197.856 38.4844 198.403 37.7656C198.95 37.0312 199.223 36.1172 199.223 35.0234ZM230.812 9.875H237.727V33.2891C237.727 37.2422 236.672 40.0938 234.562 41.8438C232.453 43.5938 229.766 44.4688 226.5 44.4688C223.188 44.4688 220.484 43.5938 218.391 41.8438C216.297 40.0938 215.25 37.2422 215.25 33.2891V9.875H222.164V33.2891C222.164 35.5234 222.531 36.9922 223.266 37.6953C224.016 38.3984 225.094 38.75 226.5 38.75C227.922 38.75 228.992 38.3984 229.711 37.6953C230.445 36.9922 230.812 35.5234 230.812 33.2891V9.875ZM271.613 9.875V44H264.722L254.644 21.6172V44H247.73V9.875H254.644L264.722 32.2812V9.875H271.613Z" fill="#FFDB48"/>
<defs>
<linearGradient id="paint0_linear" x1="0" y1="28" x2="48" y2="28" gradientUnits="userSpaceOnUse">
<stop stop-color="#FFCC00"/>
<stop offset="0.290637" stop-color="#FFCC00"/>
<stop offset="1" stop-color="#FFE680"/>
</linearGradient>
</defs>
</svg>
